<svg xmlns="http://www.w3.org/2000/svg" xmlns:xlink="http://www.w3.org/1999/xlink" width="500" zoomAndPan="magnify" viewBox="0 0 375 374.999991" height="500" preserveAspectRatio="xMidYMid meet" version="1.0"><defs><g/><clipPath id="70a7a9ad3c"><path d="M 23 86 L 352 86 L 352 278 L 23 278 Z M 23 86 " clip-rule="nonzero"/></clipPath><clipPath id="e49c9dff44"><path d="M 76.425781 -0.253906 L 373.546875 114.351562 L 296.03125 315.316406 L -1.09375 200.710938 Z M 76.425781 -0.253906 " clip-rule="nonzero"/></clipPath><clipPath id="c6deb6739d"><path d="M 76.425781 -0.253906 L 373.546875 114.351562 L 296.03125 315.316406 L -1.09375 200.710938 Z M 76.425781 -0.253906 " clip-rule="nonzero"/></clipPath><clipPath id="892251ab55"><path d="M 349.21875 160.316406 C 356.621094 135.160156 343.976562 107.953125 320.09375 97.253906 C 301.652344 88.921875 281.246094 92.011719 266.378906 103.191406 C 258.96875 108.722656 248.714844 108.289062 241.515625 102.398438 C 235.972656 97.824219 229.476562 93.964844 222.410156 91.238281 C 201.675781 83.242188 179.457031 85.769531 161.582031 96.328125 C 151.222656 102.484375 138.367188 102.125 127.976562 96.089844 C 123.464844 93.402344 118.492188 91.210938 113.289062 89.609375 C 79.5625 79.171875 43.003906 96.0625 28.914062 128.378906 C 12.863281 165.085938 30.804688 207.328125 67.792969 221.59375 C 83.109375 227.5 99.171875 227.605469 113.605469 223.160156 C 128.203125 218.640625 143.808594 225.203125 150.726562 238.832031 C 158.824219 254.675781 172.9375 267.5625 191.441406 273.617188 C 225.457031 284.707031 262.976562 267.785156 277.128906 234.949219 C 278.746094 231.105469 280.039062 227.410156 281.019531 223.457031 C 284.234375 210.21875 294.613281 200.148438 308.039062 197.613281 C 326.824219 194.167969 343.328125 180.507812 349.21875 160.316406 Z M 349.21875 160.316406 " clip-rule="nonzero"/></clipPath><linearGradient x1="-25.788846" gradientTransform="matrix(1.177966, 0.454369, -0.454369, 1.177966, 78.141919, 0.408146)" y1="86.113998" x2="286.827368" gradientUnits="userSpaceOnUse" y2="86.113998" id="70d45ef3a1"><stop stop-opacity="1" stop-color="rgb(100%, 43.528748%, 8.239746%)" offset="0"/><stop stop-opacity="1" stop-color="rgb(100%, 43.528748%, 8.239746%)" offset="0.0625"/><stop stop-opacity="1" stop-color="rgb(100%, 43.528748%, 8.239746%)" offset="0.078125"/><stop stop-opacity="1" stop-color="rgb(100%, 43.572998%, 8.360291%)" offset="0.0859375"/><stop stop-opacity="1" stop-color="rgb(100%, 43.716431%, 8.755493%)" offset="0.0898437"/><stop stop-opacity="1" stop-color="rgb(100%, 43.815613%, 9.030151%)" offset="0.09375"/><stop stop-opacity="1" stop-color="rgb(100%, 43.914795%, 9.303284%)" offset="0.0976562"/><stop stop-opacity="1" stop-color="rgb(100%, 44.013977%, 9.577942%)" offset="0.101562"/><stop stop-opacity="1" stop-color="rgb(100%, 44.113159%, 9.8526%)" offset="0.105469"/><stop stop-opacity="1" stop-color="rgb(100%, 44.212341%, 10.127258%)" offset="0.109375"/><stop stop-opacity="1" stop-color="rgb(100%, 44.311523%, 10.401917%)" offset="0.113281"/><stop stop-opacity="1" stop-color="rgb(100%, 44.410706%, 10.676575%)" offset="0.117187"/><stop stop-opacity="1" stop-color="rgb(100%, 44.509888%, 10.949707%)" offset="0.121094"/><stop stop-opacity="1" stop-color="rgb(100%, 44.60907%, 11.224365%)" offset="0.125"/><stop stop-opacity="1" stop-color="rgb(100%, 44.708252%, 11.499023%)" offset="0.128906"/><stop stop-opacity="1" stop-color="rgb(100%, 44.807434%, 11.773682%)" offset="0.132812"/><stop stop-opacity="1" stop-color="rgb(100%, 44.906616%, 12.046814%)" offset="0.136719"/><stop stop-opacity="1" stop-color="rgb(100%, 45.005798%, 12.321472%)" offset="0.140625"/><stop stop-opacity="1" stop-color="rgb(100%, 45.10498%, 12.59613%)" offset="0.144531"/><stop stop-opacity="1" stop-color="rgb(100%, 45.204163%, 12.870789%)" offset="0.148437"/><stop stop-opacity="1" stop-color="rgb(100%, 45.303345%, 13.145447%)" offset="0.152344"/><stop stop-opacity="1" stop-color="rgb(100%, 45.402527%, 13.420105%)" offset="0.15625"/><stop stop-opacity="1" stop-color="rgb(100%, 45.501709%, 13.693237%)" offset="0.160156"/><stop stop-opacity="1" stop-color="rgb(100%, 45.600891%, 13.967896%)" offset="0.164062"/><stop stop-opacity="1" stop-color="rgb(100%, 45.700073%, 14.242554%)" offset="0.167969"/><stop stop-opacity="1" stop-color="rgb(100%, 45.800781%, 14.517212%)" offset="0.171875"/><stop stop-opacity="1" stop-color="rgb(100%, 45.899963%, 14.790344%)" offset="0.175781"/><stop stop-opacity="1" stop-color="rgb(100%, 45.999146%, 15.065002%)" offset="0.179687"/><stop stop-opacity="1" stop-color="rgb(100%, 46.098328%, 15.339661%)" offset="0.183594"/><stop stop-opacity="1" stop-color="rgb(100%, 46.19751%, 15.614319%)" offset="0.1875"/><stop stop-opacity="1" stop-color="rgb(100%, 46.296692%, 15.888977%)" offset="0.191406"/><stop stop-opacity="1" stop-color="rgb(100%, 46.395874%, 16.163635%)" offset="0.195312"/><stop stop-opacity="1" stop-color="rgb(100%, 46.495056%, 16.436768%)" offset="0.199219"/><stop stop-opacity="1" stop-color="rgb(100%, 46.594238%, 16.711426%)" offset="0.203125"/><stop stop-opacity="1" stop-color="rgb(100%, 46.69342%, 16.986084%)" offset="0.207031"/><stop stop-opacity="1" stop-color="rgb(100%, 46.792603%, 17.260742%)" offset="0.210937"/><stop stop-opacity="1" stop-color="rgb(100%, 46.891785%, 17.533875%)" offset="0.214844"/><stop stop-opacity="1" stop-color="rgb(100%, 46.990967%, 17.808533%)" offset="0.21875"/><stop stop-opacity="1" stop-color="rgb(100%, 47.090149%, 18.083191%)" offset="0.222656"/><stop stop-opacity="1" stop-color="rgb(100%, 47.189331%, 18.357849%)" offset="0.226562"/><stop stop-opacity="1" stop-color="rgb(100%, 47.288513%, 18.632507%)" offset="0.230469"/><stop stop-opacity="1" stop-color="rgb(100%, 47.387695%, 18.907166%)" offset="0.234375"/><stop stop-opacity="1" stop-color="rgb(100%, 47.486877%, 19.180298%)" offset="0.238281"/><stop stop-opacity="1" stop-color="rgb(100%, 47.58606%, 19.454956%)" offset="0.242187"/><stop stop-opacity="1" stop-color="rgb(100%, 47.685242%, 19.729614%)" offset="0.246094"/><stop stop-opacity="1" stop-color="rgb(100%, 47.784424%, 20.004272%)" offset="0.25"/><stop stop-opacity="1" stop-color="rgb(100%, 47.883606%, 20.277405%)" offset="0.253906"/><stop stop-opacity="1" stop-color="rgb(100%, 47.982788%, 20.552063%)" offset="0.257812"/><stop stop-opacity="1" stop-color="rgb(100%, 48.08197%, 20.826721%)" offset="0.261719"/><stop stop-opacity="1" stop-color="rgb(100%, 48.181152%, 21.101379%)" offset="0.265625"/><stop stop-opacity="1" stop-color="rgb(100%, 48.280334%, 21.376038%)" offset="0.269531"/><stop stop-opacity="1" stop-color="rgb(100%, 48.381042%, 21.650696%)" offset="0.273437"/><stop stop-opacity="1" stop-color="rgb(100%, 48.480225%, 21.923828%)" offset="0.277344"/><stop stop-opacity="1" stop-color="rgb(100%, 48.579407%, 22.198486%)" offset="0.28125"/><stop stop-opacity="1" stop-color="rgb(100%, 48.678589%, 22.473145%)" offset="0.285156"/><stop stop-opacity="1" stop-color="rgb(100%, 48.777771%, 22.747803%)" offset="0.289062"/><stop stop-opacity="1" stop-color="rgb(100%, 48.876953%, 23.020935%)" offset="0.292969"/><stop stop-opacity="1" stop-color="rgb(100%, 48.976135%, 23.295593%)" offset="0.296875"/><stop stop-opacity="1" stop-color="rgb(100%, 49.075317%, 23.570251%)" offset="0.300781"/><stop stop-opacity="1" stop-color="rgb(100%, 49.1745%, 23.84491%)" offset="0.304687"/><stop stop-opacity="1" stop-color="rgb(100%, 49.273682%, 24.119568%)" offset="0.308594"/><stop stop-opacity="1" stop-color="rgb(100%, 49.372864%, 24.394226%)" offset="0.3125"/><stop stop-opacity="1" stop-color="rgb(100%, 49.472046%, 24.667358%)" offset="0.316406"/><stop stop-opacity="1" stop-color="rgb(100%, 49.571228%, 24.942017%)" offset="0.320312"/><stop stop-opacity="1" stop-color="rgb(100%, 49.67041%, 25.216675%)" offset="0.324219"/><stop stop-opacity="1" stop-color="rgb(100%, 49.769592%, 25.491333%)" offset="0.328125"/><stop stop-opacity="1" stop-color="rgb(100%, 49.868774%, 25.764465%)" offset="0.332031"/><stop stop-opacity="1" stop-color="rgb(100%, 49.967957%, 26.039124%)" offset="0.335937"/><stop stop-opacity="1" stop-color="rgb(100%, 50.067139%, 26.313782%)" offset="0.339844"/><stop stop-opacity="1" stop-color="rgb(100%, 50.166321%, 26.58844%)" offset="0.34375"/><stop stop-opacity="1" stop-color="rgb(100%, 50.265503%, 26.863098%)" offset="0.347656"/><stop stop-opacity="1" stop-color="rgb(100%, 50.364685%, 27.137756%)" offset="0.351562"/><stop stop-opacity="1" stop-color="rgb(100%, 50.463867%, 27.410889%)" offset="0.355469"/><stop stop-opacity="1" stop-color="rgb(100%, 50.563049%, 27.685547%)" offset="0.359375"/><stop stop-opacity="1" stop-color="rgb(100%, 50.662231%, 27.960205%)" offset="0.363281"/><stop stop-opacity="1" stop-color="rgb(100%, 50.761414%, 28.234863%)" offset="0.367187"/><stop stop-opacity="1" stop-color="rgb(100%, 50.860596%, 28.507996%)" offset="0.371094"/><stop stop-opacity="1" stop-color="rgb(100%, 50.961304%, 28.782654%)" offset="0.375"/><stop stop-opacity="1" stop-color="rgb(100%, 51.060486%, 29.057312%)" offset="0.378906"/><stop stop-opacity="1" stop-color="rgb(100%, 51.159668%, 29.33197%)" offset="0.382812"/><stop stop-opacity="1" stop-color="rgb(100%, 51.25885%, 29.606628%)" offset="0.386719"/><stop stop-opacity="1" stop-color="rgb(100%, 51.358032%, 29.881287%)" offset="0.390625"/><stop stop-opacity="1" stop-color="rgb(100%, 51.457214%, 30.154419%)" offset="0.394531"/><stop stop-opacity="1" stop-color="rgb(100%, 51.556396%, 30.429077%)" offset="0.398437"/><stop stop-opacity="1" stop-color="rgb(100%, 51.655579%, 30.703735%)" offset="0.402344"/><stop stop-opacity="1" stop-color="rgb(100%, 51.754761%, 30.978394%)" offset="0.40625"/><stop stop-opacity="1" stop-color="rgb(100%, 51.853943%, 31.251526%)" offset="0.410156"/><stop stop-opacity="1" stop-color="rgb(100%, 51.953125%, 31.526184%)" offset="0.414062"/><stop stop-opacity="1" stop-color="rgb(100%, 52.052307%, 31.800842%)" offset="0.417969"/><stop stop-opacity="1" stop-color="rgb(100%, 52.151489%, 32.0755%)" offset="0.421875"/><stop stop-opacity="1" stop-color="rgb(100%, 52.250671%, 32.350159%)" offset="0.425781"/><stop stop-opacity="1" stop-color="rgb(100%, 52.349854%, 32.624817%)" offset="0.429687"/><stop stop-opacity="1" stop-color="rgb(100%, 52.449036%, 32.897949%)" offset="0.433594"/><stop stop-opacity="1" stop-color="rgb(100%, 52.548218%, 33.172607%)" offset="0.4375"/><stop stop-opacity="1" stop-color="rgb(100%, 52.6474%, 33.447266%)" offset="0.441406"/><stop stop-opacity="1" stop-color="rgb(100%, 52.746582%, 33.721924%)" offset="0.445312"/><stop stop-opacity="1" stop-color="rgb(100%, 52.845764%, 33.995056%)" offset="0.449219"/><stop stop-opacity="1" stop-color="rgb(100%, 52.944946%, 34.269714%)" offset="0.453125"/><stop stop-opacity="1" stop-color="rgb(100%, 53.044128%, 34.544373%)" offset="0.457031"/><stop stop-opacity="1" stop-color="rgb(100%, 53.143311%, 34.819031%)" offset="0.460937"/><stop stop-opacity="1" stop-color="rgb(100%, 53.242493%, 35.093689%)" offset="0.464844"/><stop stop-opacity="1" stop-color="rgb(100%, 53.341675%, 35.368347%)" offset="0.46875"/><stop stop-opacity="1" stop-color="rgb(100%, 53.440857%, 35.641479%)" offset="0.472656"/><stop stop-opacity="1" stop-color="rgb(100%, 53.541565%, 35.916138%)" offset="0.476562"/><stop stop-opacity="1" stop-color="rgb(100%, 53.640747%, 36.190796%)" offset="0.480469"/><stop stop-opacity="1" stop-color="rgb(100%, 53.739929%, 36.465454%)" offset="0.484375"/><stop stop-opacity="1" stop-color="rgb(100%, 53.839111%, 36.738586%)" offset="0.488281"/><stop stop-opacity="1" stop-color="rgb(100%, 53.938293%, 37.013245%)" offset="0.492187"/><stop stop-opacity="1" stop-color="rgb(100%, 54.037476%, 37.287903%)" offset="0.496094"/><stop stop-opacity="1" stop-color="rgb(100%, 54.136658%, 37.562561%)" offset="0.5"/><stop stop-opacity="1" stop-color="rgb(100%, 54.23584%, 37.837219%)" offset="0.503906"/><stop stop-opacity="1" stop-color="rgb(100%, 54.335022%, 38.111877%)" offset="0.507812"/><stop stop-opacity="1" stop-color="rgb(100%, 54.434204%, 38.38501%)" offset="0.511719"/><stop stop-opacity="1" stop-color="rgb(100%, 54.533386%, 38.659668%)" offset="0.515625"/><stop stop-opacity="1" stop-color="rgb(100%, 54.632568%, 38.934326%)" offset="0.519531"/><stop stop-opacity="1" stop-color="rgb(100%, 54.73175%, 39.208984%)" offset="0.523437"/><stop stop-opacity="1" stop-color="rgb(100%, 54.830933%, 39.482117%)" offset="0.527344"/><stop stop-opacity="1" stop-color="rgb(100%, 54.930115%, 39.756775%)" offset="0.53125"/><stop stop-opacity="1" stop-color="rgb(100%, 55.029297%, 40.031433%)" offset="0.535156"/><stop stop-opacity="1" stop-color="rgb(100%, 55.128479%, 40.306091%)" offset="0.539062"/><stop stop-opacity="1" stop-color="rgb(100%, 55.227661%, 40.58075%)" offset="0.542969"/><stop stop-opacity="1" stop-color="rgb(100%, 55.326843%, 40.855408%)" offset="0.546875"/><stop stop-opacity="1" stop-color="rgb(100%, 55.426025%, 41.12854%)" offset="0.550781"/><stop stop-opacity="1" stop-color="rgb(100%, 55.525208%, 41.403198%)" offset="0.554687"/><stop stop-opacity="1" stop-color="rgb(100%, 55.62439%, 41.677856%)" offset="0.558594"/><stop stop-opacity="1" stop-color="rgb(100%, 55.723572%, 41.952515%)" offset="0.5625"/><stop stop-opacity="1" stop-color="rgb(100%, 55.822754%, 42.225647%)" offset="0.566406"/><stop stop-opacity="1" stop-color="rgb(100%, 55.921936%, 42.500305%)" offset="0.570312"/><stop stop-opacity="1" stop-color="rgb(100%, 56.021118%, 42.774963%)" offset="0.574219"/><stop stop-opacity="1" stop-color="rgb(100%, 56.121826%, 43.049622%)" offset="0.578125"/><stop stop-opacity="1" stop-color="rgb(100%, 56.221008%, 43.32428%)" offset="0.582031"/><stop stop-opacity="1" stop-color="rgb(100%, 56.32019%, 43.598938%)" offset="0.585937"/><stop stop-opacity="1" stop-color="rgb(100%, 56.419373%, 43.87207%)" offset="0.589844"/><stop stop-opacity="1" stop-color="rgb(100%, 56.518555%, 44.146729%)" offset="0.59375"/><stop stop-opacity="1" stop-color="rgb(100%, 56.617737%, 44.421387%)" offset="0.597656"/><stop stop-opacity="1" stop-color="rgb(100%, 56.716919%, 44.696045%)" offset="0.601562"/><stop stop-opacity="1" stop-color="rgb(100%, 56.816101%, 44.969177%)" offset="0.605469"/><stop stop-opacity="1" stop-color="rgb(100%, 56.915283%, 45.243835%)" offset="0.609375"/><stop stop-opacity="1" stop-color="rgb(100%, 57.014465%, 45.518494%)" offset="0.613281"/><stop stop-opacity="1" stop-color="rgb(100%, 57.113647%, 45.793152%)" offset="0.617187"/><stop stop-opacity="1" stop-color="rgb(100%, 57.21283%, 46.066284%)" offset="0.621094"/><stop stop-opacity="1" stop-color="rgb(100%, 57.312012%, 46.340942%)" offset="0.625"/><stop stop-opacity="1" stop-color="rgb(100%, 57.411194%, 46.615601%)" offset="0.628906"/><stop stop-opacity="1" stop-color="rgb(100%, 57.510376%, 46.890259%)" offset="0.632812"/><stop stop-opacity="1" stop-color="rgb(100%, 57.609558%, 47.164917%)" offset="0.636719"/><stop stop-opacity="1" stop-color="rgb(100%, 57.70874%, 47.439575%)" offset="0.640625"/><stop stop-opacity="1" stop-color="rgb(100%, 57.807922%, 47.712708%)" offset="0.644531"/><stop stop-opacity="1" stop-color="rgb(100%, 57.907104%, 47.987366%)" offset="0.648437"/><stop stop-opacity="1" stop-color="rgb(100%, 58.006287%, 48.262024%)" offset="0.652344"/><stop stop-opacity="1" stop-color="rgb(100%, 58.105469%, 48.536682%)" offset="0.65625"/><stop stop-opacity="1" stop-color="rgb(100%, 58.204651%, 48.809814%)" offset="0.660156"/><stop stop-opacity="1" stop-color="rgb(100%, 58.303833%, 49.084473%)" offset="0.664062"/><stop stop-opacity="1" stop-color="rgb(100%, 58.403015%, 49.359131%)" offset="0.667969"/><stop stop-opacity="1" stop-color="rgb(100%, 58.502197%, 49.633789%)" offset="0.671875"/><stop stop-opacity="1" stop-color="rgb(100%, 58.601379%, 49.908447%)" offset="0.675781"/><stop stop-opacity="1" stop-color="rgb(100%, 58.702087%, 50.183105%)" offset="0.679687"/><stop stop-opacity="1" stop-color="rgb(100%, 58.80127%, 50.456238%)" offset="0.683594"/><stop stop-opacity="1" stop-color="rgb(100%, 58.900452%, 50.730896%)" offset="0.6875"/><stop stop-opacity="1" stop-color="rgb(100%, 58.999634%, 51.005554%)" offset="0.691406"/><stop stop-opacity="1" stop-color="rgb(100%, 59.098816%, 51.280212%)" offset="0.695312"/><stop stop-opacity="1" stop-color="rgb(100%, 59.197998%, 51.553345%)" offset="0.699219"/><stop stop-opacity="1" stop-color="rgb(100%, 59.29718%, 51.828003%)" offset="0.703125"/><stop stop-opacity="1" stop-color="rgb(100%, 59.396362%, 52.102661%)" offset="0.707031"/><stop stop-opacity="1" stop-color="rgb(100%, 59.495544%, 52.377319%)" offset="0.710937"/><stop stop-opacity="1" stop-color="rgb(100%, 59.594727%, 52.651978%)" offset="0.714844"/><stop stop-opacity="1" stop-color="rgb(100%, 59.693909%, 52.926636%)" offset="0.71875"/><stop stop-opacity="1" stop-color="rgb(100%, 59.793091%, 53.199768%)" offset="0.722656"/><stop stop-opacity="1" stop-color="rgb(100%, 59.892273%, 53.474426%)" offset="0.726562"/><stop stop-opacity="1" stop-color="rgb(100%, 59.991455%, 53.749084%)" offset="0.730469"/><stop stop-opacity="1" stop-color="rgb(100%, 60.090637%, 54.023743%)" offset="0.734375"/><stop stop-opacity="1" stop-color="rgb(100%, 60.189819%, 54.296875%)" offset="0.738281"/><stop stop-opacity="1" stop-color="rgb(100%, 60.289001%, 54.571533%)" offset="0.742187"/><stop stop-opacity="1" stop-color="rgb(100%, 60.388184%, 54.846191%)" offset="0.746094"/><stop stop-opacity="1" stop-color="rgb(100%, 60.487366%, 55.12085%)" offset="0.75"/><stop stop-opacity="1" stop-color="rgb(100%, 60.586548%, 55.395508%)" offset="0.753906"/><stop stop-opacity="1" stop-color="rgb(100%, 60.68573%, 55.670166%)" offset="0.757812"/><stop stop-opacity="1" stop-color="rgb(100%, 60.784912%, 55.943298%)" offset="0.761719"/><stop stop-opacity="1" stop-color="rgb(100%, 60.884094%, 56.217957%)" offset="0.765625"/><stop stop-opacity="1" stop-color="rgb(100%, 60.983276%, 56.492615%)" offset="0.769531"/><stop stop-opacity="1" stop-color="rgb(100%, 61.082458%, 56.767273%)" offset="0.773437"/><stop stop-opacity="1" stop-color="rgb(100%, 61.181641%, 57.040405%)" offset="0.777344"/><stop stop-opacity="1" stop-color="rgb(100%, 61.282349%, 57.315063%)" offset="0.78125"/><stop stop-opacity="1" stop-color="rgb(100%, 61.381531%, 57.589722%)" offset="0.785156"/><stop stop-opacity="1" stop-color="rgb(100%, 61.480713%, 57.86438%)" offset="0.789062"/><stop stop-opacity="1" stop-color="rgb(100%, 61.579895%, 58.139038%)" offset="0.792969"/><stop stop-opacity="1" stop-color="rgb(100%, 61.679077%, 58.413696%)" offset="0.796875"/><stop stop-opacity="1" stop-color="rgb(100%, 61.778259%, 58.686829%)" offset="0.800781"/><stop stop-opacity="1" stop-color="rgb(100%, 61.877441%, 58.961487%)" offset="0.804687"/><stop stop-opacity="1" stop-color="rgb(100%, 61.976624%, 59.236145%)" offset="0.808594"/><stop stop-opacity="1" stop-color="rgb(100%, 62.075806%, 59.510803%)" offset="0.8125"/><stop stop-opacity="1" stop-color="rgb(100%, 62.174988%, 59.783936%)" offset="0.816406"/><stop stop-opacity="1" stop-color="rgb(100%, 62.27417%, 60.058594%)" offset="0.820312"/><stop stop-opacity="1" stop-color="rgb(100%, 62.373352%, 60.333252%)" offset="0.824219"/><stop stop-opacity="1" stop-color="rgb(100%, 62.472534%, 60.60791%)" offset="0.828125"/><stop stop-opacity="1" stop-color="rgb(100%, 62.571716%, 60.882568%)" offset="0.832031"/><stop stop-opacity="1" stop-color="rgb(100%, 62.670898%, 61.157227%)" offset="0.835938"/><stop stop-opacity="1" stop-color="rgb(100%, 62.770081%, 61.430359%)" offset="0.839844"/><stop stop-opacity="1" stop-color="rgb(100%, 62.869263%, 61.705017%)" offset="0.84375"/><stop stop-opacity="1" stop-color="rgb(100%, 62.968445%, 61.979675%)" offset="0.847656"/><stop stop-opacity="1" stop-color="rgb(100%, 63.067627%, 62.254333%)" offset="0.851562"/><stop stop-opacity="1" stop-color="rgb(100%, 63.166809%, 62.527466%)" offset="0.855469"/><stop stop-opacity="1" stop-color="rgb(100%, 63.265991%, 62.802124%)" offset="0.859375"/><stop stop-opacity="1" stop-color="rgb(100%, 63.365173%, 63.076782%)" offset="0.863281"/><stop stop-opacity="1" stop-color="rgb(100%, 63.464355%, 63.35144%)" offset="0.867187"/><stop stop-opacity="1" stop-color="rgb(100%, 63.496399%, 63.439941%)" offset="0.875"/><stop stop-opacity="1" stop-color="rgb(100%, 63.529968%, 63.529968%)" offset="1"/></linearGradient><clipPath id="b20c910f51"><path d="M 122 61 L 153 61 L 153 92 L 122 92 Z M 122 61 " clip-rule="nonzero"/></clipPath><clipPath id="3d2b53e052"><path d="M 76.425781 -0.253906 L 373.546875 114.351562 L 296.03125 315.316406 L -1.09375 200.710938 Z M 76.425781 -0.253906 " clip-rule="nonzero"/></clipPath><clipPath id="4ed7f54502"><path d="M 76.425781 -0.253906 L 373.546875 114.351562 L 296.03125 315.316406 L -1.09375 200.710938 Z M 76.425781 -0.253906 " clip-rule="nonzero"/></clipPath><clipPath id="c789c04e82"><path d="M 151.222656 81.78125 C 150.871094 82.699219 150.429688 83.578125 149.898438 84.410156 C 149.371094 85.242188 148.769531 86.019531 148.089844 86.730469 C 147.40625 87.445312 146.664062 88.089844 145.859375 88.65625 C 145.050781 89.222656 144.195312 89.707031 143.296875 90.109375 C 142.394531 90.507812 141.460938 90.816406 140.5 91.03125 C 139.535156 91.246094 138.5625 91.367188 137.574219 91.390625 C 136.589844 91.417969 135.609375 91.34375 134.636719 91.175781 C 133.667969 91.007812 132.71875 90.746094 131.800781 90.390625 C 130.878906 90.035156 130.003906 89.59375 129.167969 89.066406 C 128.335938 88.539062 127.5625 87.933594 126.847656 87.253906 C 126.132812 86.574219 125.492188 85.832031 124.921875 85.023438 C 124.355469 84.21875 123.871094 83.363281 123.472656 82.460938 C 123.070312 81.558594 122.761719 80.628906 122.546875 79.664062 C 122.332031 78.703125 122.210938 77.726562 122.1875 76.742188 C 122.164062 75.753906 122.234375 74.777344 122.402344 73.804688 C 122.570312 72.832031 122.832031 71.886719 123.1875 70.964844 C 123.542969 70.046875 123.984375 69.167969 124.511719 68.335938 C 125.039062 67.5 125.644531 66.726562 126.324219 66.011719 C 127.003906 65.296875 127.75 64.65625 128.554688 64.089844 C 129.363281 63.519531 130.214844 63.035156 131.117188 62.636719 C 132.019531 62.238281 132.953125 61.929688 133.914062 61.714844 C 134.875 61.496094 135.851562 61.375 136.835938 61.351562 C 137.824219 61.328125 138.804688 61.402344 139.773438 61.570312 C 140.746094 61.738281 141.691406 62 142.613281 62.355469 C 143.535156 62.710938 144.410156 63.152344 145.246094 63.679688 C 146.078125 64.207031 146.851562 64.8125 147.566406 65.492188 C 148.28125 66.171875 148.921875 66.914062 149.488281 67.722656 C 150.058594 68.527344 150.542969 69.382812 150.941406 70.285156 C 151.339844 71.1875 151.648438 72.117188 151.867188 73.082031 C 152.082031 74.042969 152.203125 75.015625 152.226562 76.003906 C 152.25 76.988281 152.179688 77.96875 152.007812 78.941406 C 151.839844 79.914062 151.578125 80.859375 151.222656 81.78125 Z M 151.222656 81.78125 " clip-rule="nonzero"/></clipPath><linearGradient x1="49.894578" gradientTransform="matrix(1.177966, 0.454369, -0.454369, 1.177966, 78.141919, 0.408146)" y1="86.113998" x2="80.705405" gradientUnits="userSpaceOnUse" y2="86.113998" id="4ab2484d0b"><stop stop-opacity="1" stop-color="rgb(100%, 47.584534%, 19.448853%)" offset="0"/><stop stop-opacity="1" stop-color="rgb(100%, 47.622681%, 19.55719%)" offset="0.03125"/><stop stop-opacity="1" stop-color="rgb(100%, 47.7005%, 19.773865%)" offset="0.0625"/><stop stop-opacity="1" stop-color="rgb(100%, 47.779846%, 19.989014%)" offset="0.09375"/><stop stop-opacity="1" stop-color="rgb(100%, 47.857666%, 20.205688%)" offset="0.125"/><stop stop-opacity="1" stop-color="rgb(100%, 47.935486%, 20.422363%)" offset="0.15625"/><stop stop-opacity="1" stop-color="rgb(100%, 48.013306%, 20.639038%)" offset="0.1875"/><stop stop-opacity="1" stop-color="rgb(100%, 48.092651%, 20.854187%)" offset="0.21875"/><stop stop-opacity="1" stop-color="rgb(100%, 48.170471%, 21.070862%)" offset="0.25"/><stop stop-opacity="1" stop-color="rgb(100%, 48.248291%, 21.287537%)" offset="0.28125"/><stop stop-opacity="1" stop-color="rgb(100%, 48.327637%, 21.504211%)" offset="0.3125"/><stop stop-opacity="1" stop-color="rgb(100%, 48.405457%, 21.71936%)" offset="0.34375"/><stop stop-opacity="1" stop-color="rgb(100%, 48.483276%, 21.936035%)" offset="0.375"/><stop stop-opacity="1" stop-color="rgb(100%, 48.561096%, 22.15271%)" offset="0.40625"/><stop stop-opacity="1" stop-color="rgb(100%, 48.640442%, 22.369385%)" offset="0.4375"/><stop stop-opacity="1" stop-color="rgb(100%, 48.718262%, 22.584534%)" offset="0.46875"/><stop stop-opacity="1" stop-color="rgb(100%, 48.796082%, 22.801208%)" offset="0.5"/><stop stop-opacity="1" stop-color="rgb(100%, 48.873901%, 23.017883%)" offset="0.53125"/><stop stop-opacity="1" stop-color="rgb(100%, 48.953247%, 23.234558%)" offset="0.5625"/><stop stop-opacity="1" stop-color="rgb(100%, 49.031067%, 23.451233%)" offset="0.59375"/><stop stop-opacity="1" stop-color="rgb(100%, 49.108887%, 23.666382%)" offset="0.625"/><stop stop-opacity="1" stop-color="rgb(100%, 49.188232%, 23.883057%)" offset="0.65625"/><stop stop-opacity="1" stop-color="rgb(100%, 49.266052%, 24.099731%)" offset="0.6875"/><stop stop-opacity="1" stop-color="rgb(100%, 49.343872%, 24.316406%)" offset="0.71875"/><stop stop-opacity="1" stop-color="rgb(100%, 49.421692%, 24.531555%)" offset="0.75"/><stop stop-opacity="1" stop-color="rgb(100%, 49.501038%, 24.74823%)" offset="0.78125"/><stop stop-opacity="1" stop-color="rgb(100%, 49.578857%, 24.964905%)" offset="0.8125"/><stop stop-opacity="1" stop-color="rgb(100%, 49.656677%, 25.18158%)" offset="0.84375"/><stop stop-opacity="1" stop-color="rgb(100%, 49.736023%, 25.396729%)" offset="0.875"/><stop stop-opacity="1" stop-color="rgb(100%, 49.813843%, 25.613403%)" offset="0.90625"/><stop stop-opacity="1" stop-color="rgb(100%, 49.891663%, 25.830078%)" offset="0.9375"/><stop stop-opacity="1" stop-color="rgb(100%, 49.969482%, 26.046753%)" offset="0.96875"/><stop stop-opacity="1" stop-color="rgb(100%, 50.048828%, 26.261902%)" offset="1"/></linearGradient><clipPath id="b343280e46"><path d="M 219 58 L 238 58 L 238 77 L 219 77 Z M 219 58 " clip-rule="nonzero"/></clipPath><clipPath id="955580bf52"><path d="M 76.425781 -0.253906 L 373.546875 114.351562 L 296.03125 315.316406 L -1.09375 200.710938 Z M 76.425781 -0.253906 " clip-rule="nonzero"/></clipPath><clipPath id="ec6728998f"><path d="M 76.425781 -0.253906 L 373.546875 114.351562 L 296.03125 315.316406 L -1.09375 200.710938 Z M 76.425781 -0.253906 " clip-rule="nonzero"/></clipPath><clipPath id="17b4252a38"><path d="M 236.652344 71.15625 C 236.4375 71.707031 236.175781 72.230469 235.859375 72.726562 C 235.546875 73.222656 235.183594 73.683594 234.78125 74.113281 C 234.375 74.539062 233.929688 74.921875 233.449219 75.257812 C 232.96875 75.597656 232.457031 75.886719 231.917969 76.125 C 231.382812 76.363281 230.824219 76.546875 230.25 76.675781 C 229.675781 76.804688 229.09375 76.878906 228.507812 76.890625 C 227.917969 76.90625 227.335938 76.863281 226.753906 76.761719 C 226.175781 76.664062 225.609375 76.507812 225.0625 76.292969 C 224.511719 76.082031 223.988281 75.820312 223.492188 75.503906 C 222.992188 75.1875 222.53125 74.828125 222.105469 74.421875 C 221.679688 74.015625 221.296875 73.574219 220.957031 73.09375 C 220.621094 72.609375 220.332031 72.101562 220.09375 71.5625 C 219.851562 71.023438 219.667969 70.46875 219.539062 69.894531 C 219.410156 69.320312 219.339844 68.738281 219.324219 68.152344 C 219.3125 67.5625 219.355469 66.976562 219.453125 66.398438 C 219.554688 65.816406 219.710938 65.253906 219.921875 64.703125 C 220.136719 64.15625 220.398438 63.632812 220.714844 63.136719 C 221.027344 62.636719 221.390625 62.175781 221.792969 61.75 C 222.199219 61.324219 222.644531 60.941406 223.125 60.601562 C 223.605469 60.261719 224.117188 59.972656 224.65625 59.734375 C 225.191406 59.496094 225.75 59.3125 226.324219 59.183594 C 226.898438 59.054688 227.480469 58.984375 228.066406 58.96875 C 228.65625 58.953125 229.238281 58.996094 229.820312 59.097656 C 230.398438 59.199219 230.964844 59.355469 231.511719 59.566406 C 232.0625 59.777344 232.585938 60.042969 233.082031 60.355469 C 233.578125 60.671875 234.042969 61.03125 234.46875 61.4375 C 234.894531 61.84375 235.277344 62.289062 235.617188 62.769531 C 235.953125 63.25 236.242188 63.757812 236.480469 64.296875 C 236.71875 64.835938 236.90625 65.390625 237.035156 65.964844 C 237.164062 66.539062 237.234375 67.121094 237.25 67.710938 C 237.261719 68.296875 237.21875 68.882812 237.121094 69.464844 C 237.019531 70.042969 236.863281 70.605469 236.652344 71.15625 Z M 236.652344 71.15625 " clip-rule="nonzero"/></clipPath><linearGradient x1="121.008516" gradientTransform="matrix(1.177966, 0.454369, -0.454369, 1.177966, 78.141919, 0.408146)" y1="86.113998" x2="139.39146" gradientUnits="userSpaceOnUse" y2="86.113998" id="d13b25efa7"><stop stop-opacity="1" stop-color="rgb(100%, 53.363037%, 35.426331%)" offset="0"/><stop stop-opacity="1" stop-color="rgb(100%, 53.408813%, 35.554504%)" offset="0.0625"/><stop stop-opacity="1" stop-color="rgb(100%, 53.503418%, 35.812378%)" offset="0.125"/><stop stop-opacity="1" stop-color="rgb(100%, 53.596497%, 36.070251%)" offset="0.1875"/><stop stop-opacity="1" stop-color="rgb(100%, 53.689575%, 36.328125%)" offset="0.25"/><stop stop-opacity="1" stop-color="rgb(100%, 53.782654%, 36.585999%)" offset="0.3125"/><stop stop-opacity="1" stop-color="rgb(100%, 53.875732%, 36.845398%)" offset="0.375"/><stop stop-opacity="1" stop-color="rgb(100%, 53.970337%, 37.103271%)" offset="0.4375"/><stop stop-opacity="1" stop-color="rgb(100%, 54.063416%, 37.361145%)" offset="0.5"/><stop stop-opacity="1" stop-color="rgb(100%, 54.156494%, 37.619019%)" offset="0.5625"/><stop stop-opacity="1" stop-color="rgb(100%, 54.249573%, 37.876892%)" offset="0.625"/><stop stop-opacity="1" stop-color="rgb(100%, 54.342651%, 38.134766%)" offset="0.6875"/><stop stop-opacity="1" stop-color="rgb(100%, 54.437256%, 38.394165%)" offset="0.75"/><stop stop-opacity="1" stop-color="rgb(100%, 54.530334%, 38.652039%)" offset="0.8125"/><stop stop-opacity="1" stop-color="rgb(100%, 54.623413%, 38.909912%)" offset="0.875"/><stop stop-opacity="1" stop-color="rgb(100%, 54.716492%, 39.167786%)" offset="0.9375"/><stop stop-opacity="1" stop-color="rgb(100%, 54.80957%, 39.425659%)" offset="1"/></linearGradient><clipPath id="cd3869ede0"><path d="M 299 216 L 328 216 L 328 246 L 299 246 Z M 299 216 " clip-rule="nonzero"/></clipPath><clipPath id="d1be24269d"><path d="M 76.425781 -0.253906 L 373.546875 114.351562 L 296.03125 315.316406 L -1.09375 200.710938 Z M 76.425781 -0.253906 " clip-rule="nonzero"/></clipPath><clipPath id="6fca66b68b"><path d="M 76.425781 -0.253906 L 373.546875 114.351562 L 296.03125 315.316406 L -1.09375 200.710938 Z M 76.425781 -0.253906 " clip-rule="nonzero"/></clipPath><clipPath id="2aa91956d9"><path d="M 326.875 236.136719 C 326.539062 237.003906 326.125 237.832031 325.628906 238.613281 C 325.132812 239.398438 324.5625 240.128906 323.921875 240.800781 C 323.28125 241.472656 322.582031 242.074219 321.824219 242.609375 C 321.066406 243.144531 320.261719 243.601562 319.414062 243.976562 C 318.5625 244.351562 317.6875 244.644531 316.78125 244.847656 C 315.875 245.050781 314.957031 245.164062 314.027344 245.1875 C 313.101562 245.207031 312.179688 245.140625 311.265625 244.980469 C 310.351562 244.824219 309.460938 244.578125 308.59375 244.242188 C 307.726562 243.910156 306.902344 243.492188 306.117188 242.996094 C 305.332031 242.5 304.605469 241.929688 303.929688 241.292969 C 303.257812 240.652344 302.65625 239.953125 302.121094 239.191406 C 301.585938 238.433594 301.128906 237.628906 300.753906 236.78125 C 300.378906 235.929688 300.089844 235.054688 299.886719 234.148438 C 299.679688 233.242188 299.566406 232.324219 299.546875 231.398438 C 299.523438 230.46875 299.589844 229.546875 299.75 228.632812 C 299.90625 227.71875 300.15625 226.828125 300.488281 225.960938 C 300.824219 225.09375 301.238281 224.269531 301.734375 223.484375 C 302.230469 222.699219 302.800781 221.972656 303.441406 221.300781 C 304.082031 220.625 304.78125 220.023438 305.539062 219.488281 C 306.296875 218.953125 307.101562 218.5 307.953125 218.121094 C 308.800781 217.746094 309.675781 217.457031 310.582031 217.253906 C 311.488281 217.050781 312.40625 216.9375 313.335938 216.914062 C 314.261719 216.890625 315.183594 216.957031 316.097656 217.117188 C 317.015625 217.277344 317.90625 217.523438 318.769531 217.855469 C 319.636719 218.191406 320.460938 218.605469 321.246094 219.101562 C 322.03125 219.597656 322.761719 220.167969 323.433594 220.808594 C 324.105469 221.449219 324.707031 222.148438 325.242188 222.90625 C 325.777344 223.667969 326.234375 224.46875 326.609375 225.320312 C 326.984375 226.167969 327.277344 227.046875 327.480469 227.953125 C 327.683594 228.855469 327.796875 229.773438 327.816406 230.703125 C 327.839844 231.628906 327.773438 232.550781 327.613281 233.46875 C 327.457031 234.382812 327.210938 235.273438 326.875 236.136719 Z M 326.875 236.136719 " clip-rule="nonzero"/></clipPath><linearGradient x1="225.300761" gradientTransform="matrix(1.177966, 0.454369, -0.454369, 1.177966, 78.141919, 0.408146)" y1="86.113998" x2="254.299172" gradientUnits="userSpaceOnUse" y2="86.113998" id="d1d3a075d9"><stop stop-opacity="1" stop-color="rgb(100%, 61.839294%, 58.856201%)" offset="0"/><stop stop-opacity="1" stop-color="rgb(100%, 61.875916%, 58.958435%)" offset="0.03125"/><stop stop-opacity="1" stop-color="rgb(100%, 61.949158%, 59.161377%)" offset="0.0625"/><stop stop-opacity="1" stop-color="rgb(100%, 62.0224%, 59.365845%)" offset="0.09375"/><stop stop-opacity="1" stop-color="rgb(100%, 62.097168%, 59.568787%)" offset="0.125"/><stop stop-opacity="1" stop-color="rgb(100%, 62.17041%, 59.771729%)" offset="0.15625"/><stop stop-opacity="1" stop-color="rgb(100%, 62.243652%, 59.976196%)" offset="0.1875"/><stop stop-opacity="1" stop-color="rgb(100%, 62.316895%, 60.179138%)" offset="0.21875"/><stop stop-opacity="1" stop-color="rgb(100%, 62.391663%, 60.383606%)" offset="0.25"/><stop stop-opacity="1" stop-color="rgb(100%, 62.464905%, 60.586548%)" offset="0.28125"/><stop stop-opacity="1" stop-color="rgb(100%, 62.538147%, 60.791016%)" offset="0.3125"/><stop stop-opacity="1" stop-color="rgb(100%, 62.611389%, 60.993958%)" offset="0.34375"/><stop stop-opacity="1" stop-color="rgb(100%, 62.686157%, 61.196899%)" offset="0.375"/><stop stop-opacity="1" stop-color="rgb(100%, 62.759399%, 61.401367%)" offset="0.40625"/><stop stop-opacity="1" stop-color="rgb(100%, 62.832642%, 61.604309%)" offset="0.4375"/><stop stop-opacity="1" stop-color="rgb(100%, 62.90741%, 61.808777%)" offset="0.46875"/><stop stop-opacity="1" stop-color="rgb(100%, 62.980652%, 62.011719%)" offset="0.5"/><stop stop-opacity="1" stop-color="rgb(100%, 63.053894%, 62.214661%)" offset="0.53125"/><stop stop-opacity="1" stop-color="rgb(100%, 63.127136%, 62.419128%)" offset="0.5625"/><stop stop-opacity="1" stop-color="rgb(100%, 63.201904%, 62.62207%)" offset="0.59375"/><stop stop-opacity="1" stop-color="rgb(100%, 63.275146%, 62.826538%)" offset="0.625"/><stop stop-opacity="1" stop-color="rgb(100%, 63.348389%, 63.02948%)" offset="0.65625"/><stop stop-opacity="1" stop-color="rgb(100%, 63.421631%, 63.233948%)" offset="0.6875"/><stop stop-opacity="1" stop-color="rgb(100%, 63.494873%, 63.432312%)" offset="0.75"/><stop stop-opacity="1" stop-color="rgb(100%, 63.529968%, 63.529968%)" offset="1"/></linearGradient><clipPath id="bef093258f"><rect x="0" width="185" y="0" height="110"/></clipPath><clipPath id="a8407935db"><rect x="0" width="178" y="0" height="113"/></clipPath><clipPath id="962cbe795b"><rect x="0" width="90" y="0" height="40"/></clipPath><clipPath id="868d257c2b"><rect x="0" width="374" y="0" height="315"/></clipPath></defs><g transform="matrix(1, 0, 0, 1, 1, 30)"><g clip-path="url(#868d257c2b)"><g clip-path="url(#70a7a9ad3c)"><g clip-path="url(#e49c9dff44)"><g clip-path="url(#c6deb6739d)"><g clip-path="url(#892251ab55)"><path fill="url(#70d45ef3a1)" d="M 57.382812 -36.25 L -56.148438 258.089844 L 312.101562 400.132812 L 425.636719 105.792969 Z M 57.382812 -36.25 " fill-rule="nonzero"/></g></g></g></g><g clip-path="url(#b20c910f51)"><g clip-path="url(#3d2b53e052)"><g clip-path="url(#4ed7f54502)"><g clip-path="url(#c789c04e82)"><path fill="url(#4ab2484d0b)" d="M 126.058594 51.226562 L 112.058594 87.519531 L 148.355469 101.519531 L 162.351562 65.226562 Z M 126.058594 51.226562 " fill-rule="nonzero"/></g></g></g></g><g clip-path="url(#b343280e46)"><g clip-path="url(#955580bf52)"><g clip-path="url(#ec6728998f)"><g clip-path="url(#17b4252a38)"><path fill="url(#d13b25efa7)" d="M 221.636719 52.925781 L 213.285156 74.582031 L 234.9375 82.933594 L 243.289062 61.28125 Z M 221.636719 52.925781 " fill-rule="nonzero"/></g></g></g></g><g clip-path="url(#cd3869ede0)"><g clip-path="url(#d1be24269d)"><g clip-path="url(#6fca66b68b)"><g clip-path="url(#2aa91956d9)"><path fill="url(#d1d3a075d9)" d="M 303.191406 207.382812 L 290.015625 241.542969 L 324.171875 254.71875 L 337.347656 220.558594 Z M 303.191406 207.382812 " fill-rule="nonzero"/></g></g></g></g><g transform="matrix(1, 0, 0, 1, 29, 111)"><g clip-path="url(#bef093258f)"><g fill="#f6fffb" fill-opacity="1"><g transform="translate(29.721024, 88.446955)"><g><path d="M -13.453125 -31.296875 C -14.316406 -32.535156 -15.367188 -33.804688 -16.609375 -35.109375 C -17.847656 -36.410156 -19.078125 -37.722656 -20.296875 -39.046875 C -21.523438 -40.367188 -22.5625 -41.648438 -23.40625 -42.890625 C -24.257812 -44.140625 -24.753906 -45.3125 -24.890625 -46.40625 C -25.023438 -47.507812 -24.628906 -48.515625 -23.703125 -49.421875 C -23.296875 -49.765625 -22.914062 -50.078125 -22.5625 -50.359375 C -22.21875 -50.648438 -21.878906 -50.890625 -21.546875 -51.078125 C -20.203125 -51.835938 -18.976562 -52.082031 -17.875 -51.8125 C -16.769531 -51.550781 -15.726562 -50.984375 -14.75 -50.109375 C -13.78125 -49.234375 -12.835938 -48.203125 -11.921875 -47.015625 C -11.015625 -45.835938 -10.085938 -44.703125 -9.140625 -43.609375 C -5.921875 -39.910156 -3.132812 -36.992188 -0.78125 -34.859375 C 1.5625 -32.734375 3.195312 -31.9375 4.125 -32.46875 C 4.71875 -32.800781 4.859375 -33.660156 4.546875 -35.046875 C 4.242188 -36.429688 3.765625 -38.097656 3.109375 -40.046875 C 2.453125 -41.992188 1.863281 -43.910156 1.34375 -45.796875 C 0.882812 -47.703125 0.289062 -49.492188 -0.4375 -51.171875 C -1.164062 -52.859375 -1.785156 -54.421875 -2.296875 -55.859375 C -2.804688 -57.296875 -2.984375 -58.570312 -2.828125 -59.6875 C -2.671875 -60.8125 -1.941406 -61.742188 -0.640625 -62.484375 C 0.929688 -63.367188 2.335938 -63.644531 3.578125 -63.3125 C 4.816406 -62.988281 5.914062 -62.25 6.875 -61.09375 C 7.832031 -59.9375 8.6875 -58.550781 9.4375 -56.9375 C 10.1875 -55.320312 10.832031 -53.632812 11.375 -51.875 C 11.925781 -50.125 12.414062 -48.476562 12.84375 -46.9375 C 13.269531 -45.394531 13.660156 -44.164062 14.015625 -43.25 C 14.566406 -41.78125 15.289062 -40.097656 16.1875 -38.203125 C 17.09375 -36.316406 18.003906 -34.3125 18.921875 -32.1875 C 19.847656 -30.0625 20.632812 -27.910156 21.28125 -25.734375 C 21.925781 -23.566406 22.257812 -21.453125 22.28125 -19.390625 C 22.300781 -17.335938 21.847656 -15.429688 20.921875 -13.671875 C 19.992188 -11.921875 18.410156 -10.414062 16.171875 -9.15625 C 13.503906 -7.644531 11.03125 -7.050781 8.75 -7.375 C 6.46875 -7.695312 4.335938 -8.664062 2.359375 -10.28125 C 0.390625 -11.90625 -1.484375 -13.898438 -3.265625 -16.265625 C -5.046875 -18.628906 -6.769531 -21.132812 -8.4375 -23.78125 C -10.113281 -26.4375 -11.785156 -28.941406 -13.453125 -31.296875 Z M -13.453125 -31.296875 "/></g></g></g><g fill="#f6fffb" fill-opacity="1"><g transform="translate(58.288157, 71.611461)"><g><path d="M -5.578125 -27.046875 C -6.890625 -32.671875 -7.328125 -37.640625 -6.890625 -41.953125 C -6.460938 -46.265625 -5.242188 -49.773438 -3.234375 -52.484375 C -1.222656 -55.203125 1.484375 -56.960938 4.890625 -57.765625 C 7.535156 -58.378906 10.050781 -58.269531 12.4375 -57.4375 C 14.820312 -56.601562 17.03125 -55.242188 19.0625 -53.359375 C 21.101562 -51.472656 22.914062 -49.203125 24.5 -46.546875 C 26.09375 -43.898438 27.40625 -41.050781 28.4375 -38 C 29.59375 -34.488281 30.300781 -30.914062 30.5625 -27.28125 C 30.820312 -23.644531 30.550781 -20.210938 29.75 -16.984375 C 28.957031 -13.753906 27.554688 -10.992188 25.546875 -8.703125 C 23.546875 -6.421875 20.847656 -4.882812 17.453125 -4.09375 C 14.941406 -3.5 12.488281 -3.742188 10.09375 -4.828125 C 7.695312 -5.921875 5.445312 -7.585938 3.34375 -9.828125 C 1.25 -12.078125 -0.570312 -14.707031 -2.125 -17.71875 C -3.675781 -20.726562 -4.828125 -23.835938 -5.578125 -27.046875 Z M 6.921875 -49.046875 C 6.015625 -48.828125 5.347656 -48.15625 4.921875 -47.03125 C 4.492188 -45.914062 4.253906 -44.550781 4.203125 -42.9375 C 4.148438 -41.332031 4.300781 -39.660156 4.65625 -37.921875 C 5.007812 -36.179688 5.539062 -34.597656 6.25 -33.171875 C 6.957031 -31.742188 7.851562 -30.644531 8.9375 -29.875 C 10.019531 -29.113281 11.242188 -28.890625 12.609375 -29.203125 C 13.835938 -29.492188 14.675781 -30.203125 15.125 -31.328125 C 15.582031 -32.460938 15.738281 -33.804688 15.59375 -35.359375 C 15.457031 -36.921875 15.09375 -38.546875 14.5 -40.234375 C 13.914062 -41.921875 13.195312 -43.460938 12.34375 -44.859375 C 11.5 -46.253906 10.601562 -47.351562 9.65625 -48.15625 C 8.71875 -48.957031 7.804688 -49.253906 6.921875 -49.046875 Z M 6.921875 -49.046875 "/></g></g></g><g fill="#f6fffb" fill-opacity="1"><g transform="translate(90.50797, 63.256167)"><g><path d="M 3.34375 -2.046875 C 2.09375 -3.679688 1.425781 -5.535156 1.34375 -7.609375 C 1.257812 -9.691406 1.5 -11.878906 2.0625 -14.171875 C 2.632812 -16.472656 3.359375 -18.769531 4.234375 -21.0625 C 5.109375 -23.363281 5.90625 -25.570312 6.625 -27.6875 C 7.351562 -29.8125 7.796875 -31.695312 7.953125 -33.34375 C 8.085938 -34.65625 8.082031 -36.25 7.9375 -38.125 C 7.800781 -40 7.707031 -41.910156 7.65625 -43.859375 C 7.613281 -45.804688 7.769531 -47.609375 8.125 -49.265625 C 8.476562 -50.929688 9.222656 -52.238281 10.359375 -53.1875 C 10.765625 -53.539062 11.253906 -53.820312 11.828125 -54.03125 C 12.410156 -54.238281 13.085938 -54.316406 13.859375 -54.265625 C 14.378906 -54.234375 14.953125 -54.125 15.578125 -53.9375 C 16.785156 -53.601562 17.632812 -52.898438 18.125 -51.828125 C 18.613281 -50.753906 18.878906 -49.460938 18.921875 -47.953125 C 18.972656 -46.441406 18.878906 -44.84375 18.640625 -43.15625 C 18.398438 -41.46875 18.15625 -39.835938 17.90625 -38.265625 C 17.65625 -36.703125 17.472656 -35.367188 17.359375 -34.265625 C 17.203125 -32.660156 17.101562 -30.835938 17.0625 -28.796875 C 17.03125 -26.753906 17.132812 -24.785156 17.375 -22.890625 C 17.625 -21.003906 18.039062 -19.425781 18.625 -18.15625 C 19.21875 -16.882812 20.070312 -16.210938 21.1875 -16.140625 C 21.382812 -16.117188 21.679688 -16.144531 22.078125 -16.21875 C 23.816406 -16.625 25.519531 -16.96875 27.1875 -17.25 C 28.851562 -17.539062 30.394531 -17.640625 31.8125 -17.546875 C 33.644531 -17.421875 35.222656 -16.890625 36.546875 -15.953125 C 37.878906 -15.023438 38.8125 -13.414062 39.34375 -11.125 C 39.695312 -9.75 39.785156 -8.273438 39.609375 -6.703125 C 39.429688 -5.128906 39.023438 -3.65625 38.390625 -2.28125 C 37.765625 -0.914062 36.898438 0.175781 35.796875 1 C 34.703125 1.832031 33.382812 2.195312 31.84375 2.09375 C 31.789062 2.09375 31.75 2.085938 31.71875 2.078125 C 31.695312 2.078125 31.664062 2.078125 31.625 2.078125 C 30.988281 2.035156 30.160156 1.976562 29.140625 1.90625 C 28.117188 1.84375 26.976562 1.769531 25.71875 1.6875 C 23.25 1.53125 20.546875 1.351562 17.609375 1.15625 C 14.679688 0.96875 12.007812 0.789062 9.59375 0.625 C 8.09375 0.53125 6.796875 0.226562 5.703125 -0.28125 C 4.617188 -0.789062 3.832031 -1.378906 3.34375 -2.046875 Z M 3.34375 -2.046875 "/></g></g></g><g fill="#f6fffb" fill-opacity="1"><g transform="translate(126.322136, 65.455022)"><g><path d="M 18.40625 6.703125 C 15.53125 5.648438 13.265625 4.28125 11.609375 2.59375 C 9.953125 0.90625 8.753906 -0.945312 8.015625 -2.96875 C 7.273438 -5 6.878906 -7.101562 6.828125 -9.28125 C 6.773438 -11.46875 6.929688 -13.59375 7.296875 -15.65625 C 7.660156 -17.726562 8.101562 -19.640625 8.625 -21.390625 C 9.15625 -23.140625 9.648438 -24.550781 10.109375 -25.625 C 10.804688 -27.4375 11.84375 -29.378906 13.21875 -31.453125 C 14.601562 -33.523438 16.273438 -35.507812 18.234375 -37.40625 C 20.191406 -39.3125 22.40625 -40.925781 24.875 -42.25 C 27.34375 -43.582031 30.035156 -44.382812 32.953125 -44.65625 C 35.867188 -44.9375 39 -44.46875 42.34375 -43.25 C 43.164062 -42.945312 44 -42.445312 44.84375 -41.75 C 45.695312 -41.050781 46.289062 -40.164062 46.625 -39.09375 C 46.96875 -38.019531 46.710938 -36.816406 45.859375 -35.484375 C 44.960938 -34.035156 44.003906 -33.148438 42.984375 -32.828125 C 41.960938 -32.515625 40.957031 -32.535156 39.96875 -32.890625 C 39.78125 -32.960938 39.582031 -33.046875 39.375 -33.140625 C 39.175781 -33.234375 38.976562 -33.34375 38.78125 -33.46875 C 38.144531 -33.863281 37.484375 -34.1875 36.796875 -34.4375 C 34.828125 -35.15625 32.832031 -35.296875 30.8125 -34.859375 C 28.800781 -34.421875 26.992188 -33.453125 25.390625 -31.953125 C 23.785156 -30.453125 22.578125 -28.453125 21.765625 -25.953125 C 20.796875 -22.890625 20.953125 -20.453125 22.234375 -18.640625 C 23.523438 -16.828125 25.976562 -15.140625 29.59375 -13.578125 C 32.570312 -12.273438 34.570312 -10.71875 35.59375 -8.90625 C 36.613281 -7.09375 36.925781 -5.179688 36.53125 -3.171875 C 36.144531 -1.171875 35.289062 0.773438 33.96875 2.671875 C 32.488281 4.921875 30.378906 6.460938 27.640625 7.296875 C 24.898438 8.140625 21.820312 7.941406 18.40625 6.703125 Z M 18.40625 6.703125 "/></g></g></g></g></g><g transform="matrix(1, 0, 0, 1, 181, 112)"><g clip-path="url(#a8407935db)"><g fill="#fcfdf2" fill-opacity="1"><g transform="translate(13.622377, 75.913715)"><g><path d="M 5.84375 0.875 C 4.4375 0.664062 3.40625 0.21875 2.75 -0.46875 C 2.101562 -1.164062 1.710938 -1.972656 1.578125 -2.890625 C 1.441406 -3.816406 1.453125 -4.742188 1.609375 -5.671875 C 1.773438 -6.609375 1.976562 -7.398438 2.21875 -8.046875 C 3.164062 -10.660156 4.414062 -13.175781 5.96875 -15.59375 C 7.53125 -18.019531 8.9375 -20.441406 10.1875 -22.859375 C 11.164062 -24.816406 12.078125 -26.75 12.921875 -28.65625 C 13.773438 -30.570312 14.671875 -32.507812 15.609375 -34.46875 C 15.835938 -34.988281 16.265625 -35.972656 16.890625 -37.421875 C 17.523438 -38.867188 18.320312 -40.503906 19.28125 -42.328125 C 20.238281 -44.148438 21.320312 -45.84375 22.53125 -47.40625 C 23.75 -48.96875 25.078125 -50.082031 26.515625 -50.75 C 27.566406 -51.269531 28.8125 -51.425781 30.25 -51.21875 C 31.300781 -51.0625 32.289062 -50.703125 33.21875 -50.140625 C 34.144531 -49.585938 34.789062 -48.867188 35.15625 -47.984375 C 36.664062 -44.710938 37.632812 -41.3125 38.0625 -37.78125 C 38.5 -34.257812 39.019531 -30.738281 39.625 -27.21875 C 39.9375 -25.351562 40.445312 -23.273438 41.15625 -20.984375 C 41.875 -18.691406 42.597656 -16.375 43.328125 -14.03125 C 44.054688 -11.6875 44.628906 -9.441406 45.046875 -7.296875 C 45.472656 -5.148438 45.582031 -3.253906 45.375 -1.609375 C 45.25 -0.398438 44.945312 0.8125 44.46875 2.03125 C 43.988281 3.257812 43.347656 4.253906 42.546875 5.015625 C 41.742188 5.785156 40.742188 6.082031 39.546875 5.90625 L 29.234375 4.359375 C 28.085938 4.191406 27.285156 3.507812 26.828125 2.3125 C 26.367188 1.113281 26.148438 -0.378906 26.171875 -2.171875 C 26.191406 -3.960938 26.351562 -5.863281 26.65625 -7.875 C 26.957031 -9.894531 27.300781 -11.804688 27.6875 -13.609375 C 28.082031 -15.410156 28.429688 -16.914062 28.734375 -18.125 C 29.035156 -19.332031 29.179688 -20.039062 29.171875 -20.25 C 29.117188 -20.644531 28.796875 -20.984375 28.203125 -21.265625 C 27.609375 -21.546875 26.90625 -21.75 26.09375 -21.875 C 25.28125 -21.988281 24.460938 -22 23.640625 -21.90625 C 22.816406 -21.8125 22.25 -21.539062 21.9375 -21.09375 C 21.863281 -21 21.894531 -20.34375 22.03125 -19.125 C 22.164062 -17.90625 22.3125 -16.351562 22.46875 -14.46875 C 22.625 -12.582031 22.695312 -10.617188 22.6875 -8.578125 C 22.6875 -6.546875 22.515625 -4.644531 22.171875 -2.875 C 21.835938 -1.113281 21.238281 0.273438 20.375 1.296875 C 19.507812 2.328125 18.3125 2.726562 16.78125 2.5 Z M 28.828125 -42.671875 C 28.097656 -42.671875 27.40625 -42.234375 26.75 -41.359375 C 26.101562 -40.484375 25.5625 -39.390625 25.125 -38.078125 C 24.6875 -36.765625 24.351562 -35.5 24.125 -34.28125 C 23.894531 -33.0625 23.804688 -32.15625 23.859375 -31.5625 C 23.929688 -31.007812 24.242188 -30.546875 24.796875 -30.171875 C 25.347656 -29.796875 25.988281 -29.550781 26.71875 -29.4375 C 27.539062 -29.320312 28.359375 -29.382812 29.171875 -29.625 C 29.992188 -29.875 30.523438 -30.300781 30.765625 -30.90625 C 30.992188 -31.457031 31.140625 -32.363281 31.203125 -33.625 C 31.265625 -34.894531 31.226562 -36.226562 31.09375 -37.625 C 30.957031 -39.019531 30.707031 -40.207031 30.34375 -41.1875 C 29.976562 -42.175781 29.472656 -42.671875 28.828125 -42.671875 Z M 28.828125 -42.671875 "/></g></g></g><g fill="#fcfdf2" fill-opacity="1"><g transform="translate(62.4955, 82.708998)"><g><path d="M 11.15625 -1.1875 C 9.613281 -1.019531 7.972656 -1.160156 6.234375 -1.609375 C 4.503906 -2.054688 3.007812 -2.898438 1.75 -4.140625 C 0.5 -5.378906 -0.160156 -7.066406 -0.234375 -9.203125 C -0.304688 -11.628906 -0.179688 -14.070312 0.140625 -16.53125 C 0.460938 -18.988281 0.773438 -21.742188 1.078125 -24.796875 C 1.378906 -27.859375 1.460938 -31.429688 1.328125 -35.515625 C 1.222656 -37.847656 1.007812 -40.164062 0.6875 -42.46875 C 0.375 -44.78125 0.140625 -46.90625 -0.015625 -48.84375 C -0.171875 -50.78125 -0.0351562 -52.359375 0.390625 -53.578125 C 0.816406 -54.796875 1.734375 -55.476562 3.140625 -55.625 C 5.066406 -55.832031 7.015625 -55.515625 8.984375 -54.671875 C 10.953125 -53.835938 12.835938 -52.734375 14.640625 -51.359375 C 16.453125 -49.992188 18.082031 -48.570312 19.53125 -47.09375 C 20.976562 -45.613281 22.1875 -44.335938 23.15625 -43.265625 C 24.132812 -42.203125 24.734375 -41.5625 24.953125 -41.34375 C 25.710938 -40.625 26.265625 -40.285156 26.609375 -40.328125 C 26.953125 -40.359375 27.171875 -40.785156 27.265625 -41.609375 C 27.367188 -42.429688 27.351562 -43.832031 27.21875 -45.8125 C 27.082031 -47.800781 26.828125 -50.515625 26.453125 -53.953125 C 26.160156 -56.753906 27.296875 -58.289062 29.859375 -58.5625 C 30.242188 -58.601562 30.78125 -58.570312 31.46875 -58.46875 C 32.164062 -58.375 32.84375 -58.066406 33.5 -57.546875 C 34.164062 -57.035156 34.59375 -56.132812 34.78125 -54.84375 C 35.570312 -50.238281 36.347656 -46.207031 37.109375 -42.75 C 37.867188 -39.289062 38.582031 -36.242188 39.25 -33.609375 C 39.925781 -30.972656 40.550781 -28.546875 41.125 -26.328125 C 41.707031 -24.117188 42.21875 -21.988281 42.65625 -19.9375 C 43.09375 -17.882812 43.414062 -15.703125 43.625 -13.390625 C 43.820312 -11.003906 43.273438 -8.890625 41.984375 -7.046875 C 40.691406 -5.203125 38.597656 -4.125 35.703125 -3.8125 C 32.035156 -3.425781 29.238281 -4.128906 27.3125 -5.921875 C 25.382812 -7.710938 24.351562 -10.164062 24.21875 -13.28125 C 24.15625 -16.207031 23.734375 -19.007812 22.953125 -21.6875 C 22.171875 -24.363281 21.222656 -26.820312 20.109375 -29.0625 C 18.992188 -31.3125 17.847656 -33.253906 16.671875 -34.890625 C 15.492188 -36.523438 14.425781 -37.789062 13.46875 -38.6875 C 12.519531 -39.582031 11.859375 -39.984375 11.484375 -39.890625 C 10.765625 -39.765625 10.367188 -39.320312 10.296875 -38.5625 C 10.234375 -37.800781 10.34375 -36.898438 10.625 -35.859375 C 10.914062 -34.816406 11.242188 -33.8125 11.609375 -32.84375 C 11.972656 -31.882812 12.257812 -31.140625 12.46875 -30.609375 C 13.113281 -28.742188 13.953125 -26.875 14.984375 -25 C 16.015625 -23.132812 17.015625 -21.28125 17.984375 -19.4375 C 18.960938 -17.59375 19.757812 -15.75 20.375 -13.90625 C 20.988281 -12.0625 21.195312 -10.226562 21 -8.40625 C 20.894531 -7.507812 20.582031 -6.554688 20.0625 -5.546875 C 19.539062 -4.535156 18.597656 -3.628906 17.234375 -2.828125 C 15.878906 -2.023438 13.851562 -1.476562 11.15625 -1.1875 Z M 11.15625 -1.1875 "/></g></g></g><g fill="#fcfdf2" fill-opacity="1"><g transform="translate(110.413411, 76.224434)"><g><path d="M 6.25 -1.921875 C 5.101562 -1.566406 3.960938 -1.582031 2.828125 -1.96875 C 1.691406 -2.351562 0.664062 -3.253906 -0.25 -4.671875 C -1.164062 -6.085938 -1.882812 -8.128906 -2.40625 -10.796875 C -2.925781 -13.460938 -3.117188 -16.898438 -2.984375 -21.109375 C -2.898438 -23.828125 -3.132812 -26.609375 -3.6875 -29.453125 C -4.238281 -32.304688 -4.910156 -35.082031 -5.703125 -37.78125 C -6.503906 -40.476562 -7.269531 -42.972656 -8 -45.265625 C -8.738281 -47.554688 -9.226562 -49.503906 -9.46875 -51.109375 C -9.59375 -51.878906 -9.414062 -52.757812 -8.9375 -53.75 C -8.457031 -54.738281 -7.40625 -55.476562 -5.78125 -55.96875 C -4.664062 -56.3125 -3.671875 -56.3125 -2.796875 -55.96875 C -1.929688 -55.625 -1.226562 -55.132812 -0.6875 -54.5 C -0.28125 -54.050781 0.164062 -53.144531 0.65625 -51.78125 C 1.15625 -50.414062 1.71875 -48.785156 2.34375 -46.890625 C 2.976562 -45.003906 3.679688 -43.007812 4.453125 -40.90625 C 5.222656 -38.8125 6.078125 -36.765625 7.015625 -34.765625 C 7.960938 -32.765625 9.003906 -31.003906 10.140625 -29.484375 C 11.597656 -27.546875 12.988281 -25.535156 14.3125 -23.453125 C 15.644531 -21.378906 16.769531 -19.335938 17.6875 -17.328125 C 18.613281 -15.316406 19.1875 -13.457031 19.40625 -11.75 C 19.625 -10.050781 19.332031 -8.554688 18.53125 -7.265625 C 17.738281 -5.972656 16.296875 -5.003906 14.203125 -4.359375 Z M 6.25 -1.921875 "/></g></g></g><g fill="#fcfdf2" fill-opacity="1"><g transform="translate(134.755445, 69.002814)"><g><path d="M 17.578125 -8.671875 C 14.828125 -7.316406 12.265625 -6.625 9.890625 -6.59375 C 7.523438 -6.5625 5.359375 -6.976562 3.390625 -7.84375 C 1.421875 -8.71875 -0.367188 -9.890625 -1.984375 -11.359375 C -3.609375 -12.835938 -5.035156 -14.421875 -6.265625 -16.109375 C -7.503906 -17.796875 -8.570312 -19.4375 -9.46875 -21.03125 C -10.363281 -22.625 -11.046875 -23.953125 -11.515625 -25.015625 C -12.328125 -26.773438 -13.007812 -28.867188 -13.5625 -31.296875 C -14.125 -33.734375 -14.410156 -36.316406 -14.421875 -39.046875 C -14.429688 -41.773438 -14.0625 -44.488281 -13.3125 -47.1875 C -12.5625 -49.882812 -11.28125 -52.378906 -9.46875 -54.671875 C -7.65625 -56.972656 -5.15625 -58.910156 -1.96875 -60.484375 C -1.1875 -60.867188 -0.25 -61.128906 0.84375 -61.265625 C 1.945312 -61.398438 3 -61.21875 4 -60.71875 C 5.007812 -60.21875 5.707031 -59.195312 6.09375 -57.65625 C 6.507812 -56.007812 6.476562 -54.707031 6 -53.75 C 5.53125 -52.789062 4.816406 -52.078125 3.859375 -51.609375 C 3.679688 -51.523438 3.492188 -51.441406 3.296875 -51.359375 C 3.097656 -51.273438 2.875 -51.207031 2.625 -51.15625 C 1.90625 -50.957031 1.222656 -50.695312 0.578125 -50.375 C -1.304688 -49.445312 -2.785156 -48.109375 -3.859375 -46.359375 C -4.941406 -44.609375 -5.492188 -42.632812 -5.515625 -40.4375 C -5.535156 -38.238281 -4.925781 -35.984375 -3.6875 -33.671875 C -2.144531 -30.859375 -0.28125 -29.289062 1.90625 -28.96875 C 4.101562 -28.644531 7.019531 -29.238281 10.65625 -30.75 C 13.65625 -32.007812 16.160156 -32.378906 18.171875 -31.859375 C 20.191406 -31.335938 21.789062 -30.242188 22.96875 -28.578125 C 24.15625 -26.910156 24.972656 -24.953125 25.421875 -22.703125 C 26.023438 -20.066406 25.679688 -17.46875 24.390625 -14.90625 C 23.109375 -12.351562 20.835938 -10.273438 17.578125 -8.671875 Z M 17.578125 -8.671875 "/></g></g></g></g></g><g transform="matrix(1, 0, 0, 1, 168, 218)"><g clip-path="url(#962cbe795b)"><g fill="#fcfdf2" fill-opacity="1"><g transform="translate(5.006376, 17.269237)"><g><path d="M 17 -3.125 L 9.671875 7 L 7.203125 5.21875 L 10.21875 1.0625 L 6.375 -1.71875 L 3.359375 2.4375 L 0.890625 0.65625 L 8.21875 -9.46875 L 10.6875 -7.6875 L 7.828125 -3.71875 L 11.671875 -0.9375 L 14.53125 -4.90625 Z M 17 -3.125 "/></g></g></g><g fill="#fcfdf2" fill-opacity="1"><g transform="translate(16.881622, 25.53166)"><g><path d="M 5.171875 2.234375 C 4.265625 1.867188 3.523438 1.347656 2.953125 0.671875 C 2.390625 -0.00390625 2.046875 -0.78125 1.921875 -1.65625 C 1.804688 -2.539062 1.945312 -3.460938 2.34375 -4.421875 C 2.71875 -5.359375 3.257812 -6.101562 3.96875 -6.65625 C 4.675781 -7.207031 5.46875 -7.53125 6.34375 -7.625 C 7.226562 -7.71875 8.125 -7.582031 9.03125 -7.21875 C 9.9375 -6.851562 10.671875 -6.328125 11.234375 -5.640625 C 11.804688 -4.960938 12.15625 -4.175781 12.28125 -3.28125 C 12.40625 -2.382812 12.28125 -1.46875 11.90625 -0.53125 C 11.519531 0.414062 10.96875 1.160156 10.25 1.703125 C 9.539062 2.242188 8.742188 2.5625 7.859375 2.65625 C 6.972656 2.75 6.078125 2.609375 5.171875 2.234375 Z M 6.15625 -0.203125 C 6.6875 0.015625 7.222656 0.00390625 7.765625 -0.234375 C 8.316406 -0.472656 8.742188 -0.960938 9.046875 -1.703125 C 9.335938 -2.429688 9.375 -3.070312 9.15625 -3.625 C 8.945312 -4.175781 8.578125 -4.5625 8.046875 -4.78125 C 7.503906 -5 6.96875 -4.988281 6.4375 -4.75 C 5.914062 -4.507812 5.503906 -4.015625 5.203125 -3.265625 C 4.898438 -2.523438 4.847656 -1.882812 5.046875 -1.34375 C 5.242188 -0.800781 5.613281 -0.421875 6.15625 -0.203125 Z M 6.15625 -0.203125 "/></g></g></g><g fill="#fcfdf2" fill-opacity="1"><g transform="translate(28.55188, 29.947728)"><g><path d="M 7.015625 -1.203125 L 6.5 1.328125 L 4.984375 1.015625 C 3.910156 0.796875 3.125 0.359375 2.625 -0.296875 C 2.125 -0.953125 1.992188 -1.878906 2.234375 -3.078125 L 3.015625 -6.953125 L 1.84375 -7.1875 L 2.359375 -9.65625 L 3.53125 -9.421875 L 4 -11.796875 L 6.984375 -11.1875 L 6.515625 -8.8125 L 8.484375 -8.421875 L 7.96875 -5.953125 L 6 -6.34375 L 5.21875 -2.4375 C 5.15625 -2.132812 5.179688 -1.90625 5.296875 -1.75 C 5.421875 -1.601562 5.644531 -1.492188 5.96875 -1.421875 Z M 7.015625 -1.203125 "/></g></g></g><g fill="#fcfdf2" fill-opacity="1"><g transform="translate(36.404441, 31.401167)"><g/></g></g><g fill="#fcfdf2" fill-opacity="1"><g transform="translate(41.114304, 32.017)"><g><path d="M 5.609375 -0.203125 C 4.703125 -0.148438 3.878906 -0.25 3.140625 -0.5 C 2.398438 -0.757812 1.796875 -1.164062 1.328125 -1.71875 C 0.867188 -2.28125 0.601562 -2.96875 0.53125 -3.78125 L 3.765625 -3.96875 C 3.847656 -3.507812 4.023438 -3.164062 4.296875 -2.9375 C 4.578125 -2.707031 4.941406 -2.609375 5.390625 -2.640625 C 5.835938 -2.660156 6.1875 -2.78125 6.4375 -3 C 6.6875 -3.226562 6.800781 -3.523438 6.78125 -3.890625 C 6.757812 -4.203125 6.640625 -4.453125 6.421875 -4.640625 C 6.203125 -4.835938 5.9375 -4.988281 5.625 -5.09375 C 5.320312 -5.195312 4.882812 -5.316406 4.3125 -5.453125 C 3.5 -5.660156 2.828125 -5.875 2.296875 -6.09375 C 1.773438 -6.3125 1.316406 -6.648438 0.921875 -7.109375 C 0.523438 -7.578125 0.304688 -8.203125 0.265625 -8.984375 C 0.191406 -10.148438 0.554688 -11.085938 1.359375 -11.796875 C 2.171875 -12.503906 3.25 -12.898438 4.59375 -12.984375 C 5.96875 -13.066406 7.09375 -12.800781 7.96875 -12.1875 C 8.851562 -11.570312 9.363281 -10.675781 9.5 -9.5 L 6.203125 -9.3125 C 6.148438 -9.71875 5.976562 -10.023438 5.6875 -10.234375 C 5.40625 -10.453125 5.050781 -10.550781 4.625 -10.53125 C 4.257812 -10.507812 3.96875 -10.394531 3.75 -10.1875 C 3.539062 -9.976562 3.445312 -9.691406 3.46875 -9.328125 C 3.488281 -8.921875 3.691406 -8.613281 4.078125 -8.40625 C 4.472656 -8.195312 5.082031 -7.988281 5.90625 -7.78125 C 6.726562 -7.550781 7.398438 -7.328125 7.921875 -7.109375 C 8.441406 -6.890625 8.898438 -6.550781 9.296875 -6.09375 C 9.691406 -5.644531 9.910156 -5.050781 9.953125 -4.3125 C 9.992188 -3.601562 9.851562 -2.945312 9.53125 -2.34375 C 9.207031 -1.738281 8.707031 -1.242188 8.03125 -0.859375 C 7.351562 -0.472656 6.546875 -0.253906 5.609375 -0.203125 Z M 5.609375 -0.203125 "/></g></g></g><g fill="#fcfdf2" fill-opacity="1"><g transform="translate(53.142386, 31.043209)"><g><path d="M 5.84375 -4.078125 L 6.453125 -1.578125 L 4.953125 -1.203125 C 3.878906 -0.941406 2.972656 -1 2.234375 -1.375 C 1.503906 -1.757812 1 -2.546875 0.71875 -3.734375 L -0.21875 -7.5625 L -1.390625 -7.28125 L -2 -9.75 L -0.828125 -10.03125 L -1.40625 -12.375 L 1.5625 -13.09375 L 2.140625 -10.75 L 4.078125 -11.234375 L 4.6875 -8.765625 L 2.75 -8.28125 L 3.6875 -4.421875 C 3.757812 -4.128906 3.878906 -3.9375 4.046875 -3.84375 C 4.222656 -3.75 4.472656 -3.738281 4.796875 -3.8125 Z M 5.84375 -4.078125 "/></g></g></g><g fill="#fcfdf2" fill-opacity="1"><g transform="translate(61.36459, 29.15078)"><g><path d="M 5.765625 -13.59375 L 9.921875 -4.5625 L 7.15625 -3.296875 L 6.59375 -4.53125 C 6.5 -3.988281 6.265625 -3.488281 5.890625 -3.03125 C 5.523438 -2.570312 5.050781 -2.207031 4.46875 -1.9375 C 3.769531 -1.613281 3.085938 -1.484375 2.421875 -1.546875 C 1.753906 -1.617188 1.140625 -1.875 0.578125 -2.3125 C 0.015625 -2.757812 -0.441406 -3.378906 -0.796875 -4.171875 L -3.234375 -9.453125 L -0.484375 -10.71875 L 1.765625 -5.8125 C 2.046875 -5.207031 2.421875 -4.8125 2.890625 -4.625 C 3.359375 -4.4375 3.859375 -4.460938 4.390625 -4.703125 C 4.929688 -4.953125 5.28125 -5.316406 5.4375 -5.796875 C 5.59375 -6.273438 5.53125 -6.816406 5.25 -7.421875 L 3 -12.328125 Z M 5.765625 -13.59375 "/></g></g></g><g fill="#fcfdf2" fill-opacity="1"><g transform="translate(73.132264, 23.341481)"><g><path d="M 0.71875 -9.5625 L -0.625 -8.609375 L 3.640625 -2.5625 L 1.15625 -0.8125 L -3.109375 -6.859375 L -4.015625 -6.21875 L -5.484375 -8.296875 L -4.578125 -8.9375 L -4.734375 -9.15625 C -5.441406 -10.164062 -5.691406 -11.128906 -5.484375 -12.046875 C -5.285156 -12.972656 -4.632812 -13.828125 -3.53125 -14.609375 C -3.351562 -14.734375 -3.21875 -14.828125 -3.125 -14.890625 L -1.625 -12.765625 C -2.125 -12.460938 -2.410156 -12.15625 -2.484375 -11.84375 C -2.554688 -11.539062 -2.441406 -11.179688 -2.140625 -10.765625 L -2.09375 -10.6875 L -0.75 -11.640625 Z M 0.71875 -9.5625 "/></g></g></g><g fill="#fcfdf2" fill-opacity="1"><g transform="translate(79.034677, 19.107968)"><g><path d="M -0.53125 -9.578125 L -1.734375 -8.46875 L 3.28125 -3.015625 L 1.03125 -0.953125 L -3.984375 -6.40625 L -4.796875 -5.65625 L -6.515625 -7.515625 L -5.703125 -8.265625 L -5.890625 -8.46875 C -6.722656 -9.375 -7.09375 -10.296875 -7 -11.234375 C -6.90625 -12.179688 -6.363281 -13.113281 -5.375 -14.03125 C -5.207031 -14.1875 -5.082031 -14.289062 -5 -14.34375 L -3.25 -12.4375 C -3.695312 -12.082031 -3.9375 -11.75 -3.96875 -11.4375 C -4.007812 -11.125 -3.859375 -10.78125 -3.515625 -10.40625 L -3.453125 -10.328125 L -2.25 -11.4375 Z M -0.53125 -9.578125 "/></g></g></g></g></g></g></g></svg>