<svg xmlns="http://www.w3.org/2000/svg" xmlns:xlink="http://www.w3.org/1999/xlink" width="500" zoomAndPan="magnify" viewBox="0 0 375 374.999991" height="500" preserveAspectRatio="xMidYMid meet" version="1.0"><defs><clipPath id="b43c888c7a"><path d="M 55.164062 52 L 84 52 L 84 81 L 55.164062 81 Z M 55.164062 52 " clip-rule="nonzero"/></clipPath><clipPath id="23b3e9081d"><path d="M 73 206 L 303 206 L 303 327.664062 L 73 327.664062 Z M 73 206 " clip-rule="nonzero"/></clipPath><clipPath id="7aac6c3bf7"><path d="M 115 47.164062 L 298 47.164062 L 298 202 L 115 202 Z M 115 47.164062 " clip-rule="nonzero"/></clipPath></defs><path fill="#d96f32" d="M 187.5 0 C 190.570312 0 193.636719 0.0742188 196.699219 0.226562 C 199.765625 0.375 202.824219 0.601562 205.878906 0.902344 C 208.933594 1.203125 211.976562 1.578125 215.011719 2.03125 C 218.046875 2.480469 221.070312 3.003906 224.078125 3.601562 C 227.089844 4.203125 230.082031 4.875 233.058594 5.617188 C 236.035156 6.363281 238.992188 7.183594 241.929688 8.074219 C 244.863281 8.964844 247.777344 9.925781 250.667969 10.960938 C 253.554688 11.996094 256.417969 13.097656 259.253906 14.273438 C 262.089844 15.445312 264.894531 16.691406 267.667969 18.003906 C 270.441406 19.3125 273.179688 20.691406 275.886719 22.140625 C 278.59375 23.585938 281.261719 25.097656 283.894531 26.675781 C 286.527344 28.253906 289.117188 29.894531 291.667969 31.597656 C 294.222656 33.304688 296.730469 35.070312 299.195312 36.898438 C 301.660156 38.726562 304.078125 40.613281 306.449219 42.558594 C 308.820312 44.507812 311.144531 46.511719 313.417969 48.570312 C 315.691406 50.632812 317.914062 52.746094 320.082031 54.917969 C 322.253906 57.085938 324.367188 59.308594 326.429688 61.582031 C 328.488281 63.855469 330.492188 66.179688 332.4375 68.550781 C 334.386719 70.921875 336.273438 73.339844 338.101562 75.804688 C 339.929688 78.269531 341.695312 80.777344 343.402344 83.332031 C 345.105469 85.882812 346.746094 88.472656 348.324219 91.105469 C 349.902344 93.738281 351.414062 96.40625 352.859375 99.113281 C 354.308594 101.820312 355.6875 104.558594 356.996094 107.332031 C 358.308594 110.105469 359.554688 112.910156 360.726562 115.746094 C 361.902344 118.582031 363.003906 121.445312 364.039062 124.332031 C 365.074219 127.222656 366.035156 130.136719 366.925781 133.070312 C 367.816406 136.007812 368.636719 138.964844 369.378906 141.941406 C 370.125 144.917969 370.796875 147.910156 371.398438 150.921875 C 371.996094 153.929688 372.519531 156.953125 372.96875 159.988281 C 373.421875 163.023438 373.796875 166.066406 374.097656 169.121094 C 374.398438 172.175781 374.625 175.234375 374.773438 178.300781 C 374.925781 181.363281 375 184.429688 375 187.5 C 375 190.570312 374.925781 193.636719 374.773438 196.699219 C 374.625 199.765625 374.398438 202.824219 374.097656 205.878906 C 373.796875 208.933594 373.421875 211.976562 372.96875 215.011719 C 372.519531 218.046875 371.996094 221.070312 371.398438 224.078125 C 370.796875 227.089844 370.125 230.082031 369.378906 233.058594 C 368.636719 236.035156 367.816406 238.992188 366.925781 241.929688 C 366.035156 244.863281 365.074219 247.777344 364.039062 250.667969 C 363.003906 253.554688 361.902344 256.417969 360.726562 259.253906 C 359.554688 262.089844 358.308594 264.890625 356.996094 267.667969 C 355.6875 270.441406 354.308594 273.179688 352.859375 275.886719 C 351.414062 278.59375 349.902344 281.261719 348.324219 283.894531 C 346.746094 286.527344 345.105469 289.117188 343.402344 291.667969 C 341.695312 294.222656 339.929688 296.730469 338.101562 299.195312 C 336.273438 301.660156 334.386719 304.078125 332.4375 306.449219 C 330.492188 308.820312 328.488281 311.144531 326.429688 313.417969 C 324.367188 315.691406 322.253906 317.914062 320.082031 320.082031 C 317.914062 322.253906 315.691406 324.367188 313.417969 326.429688 C 311.144531 328.488281 308.820312 330.492188 306.449219 332.4375 C 304.078125 334.386719 301.660156 336.273438 299.195312 338.101562 C 296.730469 339.929688 294.222656 341.695312 291.667969 343.402344 C 289.117188 345.105469 286.527344 346.746094 283.894531 348.324219 C 281.261719 349.902344 278.59375 351.414062 275.886719 352.859375 C 273.179688 354.308594 270.441406 355.6875 267.667969 356.996094 C 264.894531 358.308594 262.089844 359.554688 259.253906 360.726562 C 256.417969 361.902344 253.554688 363.003906 250.667969 364.039062 C 247.777344 365.074219 244.863281 366.035156 241.929688 366.925781 C 238.992188 367.816406 236.035156 368.636719 233.058594 369.378906 C 230.082031 370.125 227.089844 370.796875 224.078125 371.398438 C 221.070312 371.996094 218.046875 372.519531 215.011719 372.96875 C 211.976562 373.421875 208.933594 373.796875 205.878906 374.097656 C 202.824219 374.398438 199.765625 374.625 196.699219 374.773438 C 193.636719 374.925781 190.570312 375 187.5 375 C 184.429688 375 181.363281 374.925781 178.300781 374.773438 C 175.234375 374.625 172.175781 374.398438 169.121094 374.097656 C 166.066406 373.796875 163.023438 373.421875 159.988281 372.96875 C 156.953125 372.519531 153.929688 371.996094 150.921875 371.398438 C 147.910156 370.796875 144.917969 370.125 141.941406 369.378906 C 138.964844 368.636719 136.007812 367.816406 133.070312 366.925781 C 130.136719 366.035156 127.222656 365.074219 124.332031 364.039062 C 121.445312 363.003906 118.582031 361.902344 115.746094 360.726562 C 112.910156 359.554688 110.105469 358.308594 107.332031 356.996094 C 104.558594 355.6875 101.820312 354.308594 99.113281 352.859375 C 96.40625 351.414062 93.738281 349.902344 91.105469 348.324219 C 88.472656 346.746094 85.882812 345.105469 83.332031 343.402344 C 80.777344 341.695312 78.269531 339.929688 75.804688 338.101562 C 73.339844 336.273438 70.921875 334.386719 68.550781 332.4375 C 66.179688 330.492188 63.855469 328.488281 61.582031 326.429688 C 59.308594 324.367188 57.085938 322.253906 54.917969 320.082031 C 52.746094 317.914062 50.632812 315.691406 48.570312 313.417969 C 46.511719 311.144531 44.507812 308.820312 42.558594 306.449219 C 40.613281 304.078125 38.726562 301.660156 36.898438 299.195312 C 35.070312 296.730469 33.304688 294.222656 31.597656 291.667969 C 29.894531 289.117188 28.253906 286.527344 26.675781 283.894531 C 25.097656 281.261719 23.585938 278.59375 22.140625 275.886719 C 20.691406 273.179688 19.3125 270.441406 18.003906 267.667969 C 16.691406 264.890625 15.445312 262.089844 14.273438 259.253906 C 13.097656 256.417969 11.996094 253.554688 10.960938 250.667969 C 9.925781 247.777344 8.964844 244.863281 8.074219 241.929688 C 7.183594 238.992188 6.363281 236.035156 5.621094 233.058594 C 4.875 230.082031 4.203125 227.089844 3.601562 224.078125 C 3.003906 221.070312 2.480469 218.046875 2.03125 215.011719 C 1.578125 211.976562 1.203125 208.933594 0.902344 205.878906 C 0.601562 202.824219 0.375 199.765625 0.226562 196.699219 C 0.0742188 193.636719 0 190.570312 0 187.5 C 0 184.429688 0.0742188 181.363281 0.226562 178.300781 C 0.375 175.234375 0.601562 172.175781 0.902344 169.121094 C 1.203125 166.066406 1.578125 163.023438 2.03125 159.988281 C 2.480469 156.953125 3.003906 153.929688 3.601562 150.921875 C 4.203125 147.910156 4.875 144.917969 5.621094 141.941406 C 6.363281 138.964844 7.183594 136.007812 8.074219 133.070312 C 8.964844 130.136719 9.925781 127.222656 10.960938 124.332031 C 11.996094 121.445312 13.097656 118.582031 14.273438 115.746094 C 15.445312 112.910156 16.691406 110.105469 18.003906 107.332031 C 19.3125 104.558594 20.691406 101.820312 22.140625 99.113281 C 23.585938 96.40625 25.097656 93.738281 26.675781 91.105469 C 28.253906 88.472656 29.894531 85.882812 31.597656 83.332031 C 33.304688 80.777344 35.070312 78.269531 36.898438 75.804688 C 38.726562 73.339844 40.613281 70.921875 42.558594 68.550781 C 44.507812 66.179688 46.511719 63.855469 48.570312 61.582031 C 50.632812 59.308594 52.746094 57.085938 54.917969 54.917969 C 57.085938 52.746094 59.308594 50.632812 61.582031 48.570312 C 63.855469 46.511719 66.179688 44.507812 68.550781 42.558594 C 70.921875 40.613281 73.339844 38.726562 75.804688 36.898438 C 78.269531 35.070312 80.777344 33.304688 83.332031 31.597656 C 85.882812 29.894531 88.472656 28.253906 91.105469 26.675781 C 93.738281 25.097656 96.40625 23.585938 99.113281 22.140625 C 101.820312 20.691406 104.558594 19.3125 107.332031 18.003906 C 110.105469 16.691406 112.910156 15.445312 115.746094 14.273438 C 118.582031 13.097656 121.445312 11.996094 124.332031 10.960938 C 127.222656 9.925781 130.136719 8.964844 133.070312 8.074219 C 136.007812 7.183594 138.964844 6.363281 141.941406 5.617188 C 144.917969 4.875 147.910156 4.203125 150.921875 3.601562 C 153.929688 3.003906 156.953125 2.480469 159.988281 2.03125 C 163.023438 1.578125 166.066406 1.203125 169.121094 0.902344 C 172.175781 0.601562 175.234375 0.375 178.300781 0.226562 C 181.363281 0.0742188 184.429688 0 187.5 0 Z M 187.5 0 " fill-opacity="1" fill-rule="evenodd"/><path fill="#fcfdf2" d="M 87.847656 234.183594 C 88.765625 234.183594 89.679688 234.09375 90.578125 233.914062 C 91.480469 233.734375 92.359375 233.46875 93.207031 233.117188 C 94.058594 232.765625 94.863281 232.335938 95.628906 231.824219 C 96.394531 231.3125 97.101562 230.730469 97.75 230.082031 C 98.402344 229.429688 98.984375 228.722656 99.492188 227.957031 C 100.003906 227.195312 100.4375 226.386719 100.789062 225.539062 C 101.140625 224.6875 101.40625 223.8125 101.585938 222.910156 C 101.765625 222.007812 101.855469 221.097656 101.855469 220.175781 C 101.855469 219.257812 101.765625 218.347656 101.585938 217.445312 C 101.40625 216.542969 101.140625 215.667969 100.789062 214.816406 C 100.4375 213.96875 100.003906 213.160156 99.492188 212.394531 C 98.984375 211.628906 98.402344 210.921875 97.75 210.273438 C 97.101562 209.621094 96.394531 209.042969 95.628906 208.53125 C 94.863281 208.019531 94.058594 207.589844 93.207031 207.238281 C 92.359375 206.882812 91.480469 206.617188 90.578125 206.4375 C 89.679688 206.261719 88.765625 206.171875 87.847656 206.171875 C 86.925781 206.171875 86.015625 206.261719 85.113281 206.4375 C 84.210938 206.617188 83.335938 206.882812 82.488281 207.238281 C 81.636719 207.589844 80.832031 208.019531 80.066406 208.53125 C 79.300781 209.042969 78.59375 209.621094 77.941406 210.273438 C 77.292969 210.921875 76.710938 211.628906 76.199219 212.394531 C 75.691406 213.160156 75.257812 213.96875 74.90625 214.816406 C 74.554688 215.667969 74.289062 216.542969 74.109375 217.445312 C 73.929688 218.347656 73.839844 219.257812 73.839844 220.175781 C 73.839844 221.097656 73.929688 222.007812 74.109375 222.910156 C 74.289062 223.8125 74.554688 224.6875 74.90625 225.539062 C 75.257812 226.386719 75.691406 227.195312 76.199219 227.957031 C 76.710938 228.722656 77.292969 229.429688 77.941406 230.082031 C 78.59375 230.730469 79.300781 231.3125 80.066406 231.824219 C 80.832031 232.335938 81.636719 232.765625 82.488281 233.117188 C 83.335938 233.46875 84.210938 233.734375 85.113281 233.914062 C 86.015625 234.09375 86.925781 234.183594 87.847656 234.183594 Z M 87.847656 215.507812 C 88.152344 215.507812 88.457031 215.539062 88.757812 215.597656 C 89.058594 215.65625 89.351562 215.746094 89.632812 215.863281 C 89.917969 215.980469 90.1875 216.125 90.441406 216.296875 C 90.695312 216.464844 90.933594 216.660156 91.148438 216.875 C 91.367188 217.09375 91.558594 217.328125 91.730469 217.582031 C 91.898438 217.839844 92.042969 218.105469 92.160156 218.390625 C 92.277344 218.671875 92.367188 218.964844 92.425781 219.265625 C 92.488281 219.566406 92.515625 219.871094 92.515625 220.175781 C 92.515625 220.484375 92.488281 220.789062 92.425781 221.089844 C 92.367188 221.390625 92.277344 221.679688 92.160156 221.964844 C 92.042969 222.246094 91.898438 222.515625 91.730469 222.769531 C 91.558594 223.027344 91.367188 223.261719 91.148438 223.480469 C 90.933594 223.695312 90.695312 223.890625 90.441406 224.058594 C 90.1875 224.230469 89.917969 224.375 89.632812 224.492188 C 89.351562 224.609375 89.058594 224.695312 88.757812 224.757812 C 88.457031 224.816406 88.152344 224.847656 87.847656 224.847656 C 87.539062 224.847656 87.238281 224.816406 86.9375 224.757812 C 86.636719 224.695312 86.34375 224.609375 86.0625 224.492188 C 85.777344 224.375 85.507812 224.230469 85.253906 224.058594 C 85 223.890625 84.761719 223.695312 84.546875 223.480469 C 84.328125 223.261719 84.136719 223.027344 83.964844 222.769531 C 83.796875 222.515625 83.652344 222.246094 83.535156 221.964844 C 83.417969 221.679688 83.328125 221.390625 83.269531 221.089844 C 83.207031 220.789062 83.179688 220.484375 83.179688 220.175781 C 83.179688 219.871094 83.207031 219.566406 83.269531 219.265625 C 83.328125 218.964844 83.417969 218.671875 83.535156 218.390625 C 83.652344 218.105469 83.796875 217.839844 83.964844 217.582031 C 84.136719 217.328125 84.328125 217.09375 84.546875 216.875 C 84.761719 216.660156 85 216.464844 85.253906 216.296875 C 85.507812 216.125 85.777344 215.980469 86.0625 215.863281 C 86.34375 215.746094 86.636719 215.65625 86.9375 215.597656 C 87.238281 215.539062 87.539062 215.507812 87.847656 215.507812 Z M 87.847656 215.507812 " fill-opacity="1" fill-rule="nonzero"/><path fill="#fcfdf2" d="M 251.261719 206.171875 C 251.261719 207.089844 251.351562 208 251.53125 208.902344 C 251.710938 209.804688 251.976562 210.679688 252.328125 211.53125 C 252.679688 212.378906 253.109375 213.1875 253.621094 213.953125 C 254.132812 214.71875 254.714844 215.425781 255.363281 216.074219 C 256.015625 216.726562 256.722656 217.304688 257.484375 217.816406 C 258.25 218.328125 259.058594 218.757812 259.90625 219.109375 C 260.757812 219.464844 261.632812 219.730469 262.535156 219.90625 C 263.4375 220.085938 264.347656 220.175781 265.269531 220.175781 C 266.1875 220.175781 267.097656 220.085938 268 219.90625 C 268.902344 219.730469 269.777344 219.464844 270.628906 219.109375 C 271.476562 218.757812 272.285156 218.328125 273.050781 217.816406 C 273.8125 217.304688 274.523438 216.726562 275.171875 216.074219 C 275.824219 215.425781 276.402344 214.71875 276.914062 213.953125 C 277.425781 213.1875 277.855469 212.378906 278.207031 211.53125 C 278.558594 210.679688 278.828125 209.804688 279.003906 208.902344 C 279.183594 208 279.273438 207.089844 279.273438 206.171875 C 279.273438 205.25 279.183594 204.339844 279.003906 203.4375 C 278.828125 202.535156 278.558594 201.660156 278.207031 200.808594 C 277.855469 199.960938 277.425781 199.152344 276.914062 198.386719 C 276.402344 197.625 275.824219 196.917969 275.171875 196.265625 C 274.523438 195.617188 273.8125 195.035156 273.050781 194.523438 C 272.285156 194.011719 271.476562 193.582031 270.628906 193.230469 C 269.777344 192.878906 268.902344 192.613281 268 192.433594 C 267.097656 192.253906 266.1875 192.164062 265.269531 192.164062 C 264.347656 192.164062 263.4375 192.253906 262.535156 192.433594 C 261.632812 192.613281 260.757812 192.878906 259.90625 193.230469 C 259.058594 193.582031 258.25 194.011719 257.484375 194.523438 C 256.722656 195.035156 256.015625 195.617188 255.363281 196.265625 C 254.714844 196.917969 254.132812 197.625 253.621094 198.386719 C 253.109375 199.152344 252.679688 199.960938 252.328125 200.808594 C 251.976562 201.660156 251.710938 202.535156 251.53125 203.4375 C 251.351562 204.339844 251.261719 205.25 251.261719 206.171875 Z M 269.9375 206.171875 C 269.9375 206.476562 269.90625 206.78125 269.847656 207.082031 C 269.789062 207.382812 269.699219 207.671875 269.582031 207.957031 C 269.464844 208.242188 269.320312 208.507812 269.148438 208.765625 C 268.980469 209.019531 268.785156 209.253906 268.570312 209.472656 C 268.351562 209.6875 268.117188 209.882812 267.863281 210.050781 C 267.605469 210.222656 267.335938 210.367188 267.054688 210.484375 C 266.769531 210.601562 266.480469 210.691406 266.179688 210.75 C 265.878906 210.808594 265.574219 210.839844 265.269531 210.839844 C 264.960938 210.839844 264.65625 210.808594 264.355469 210.75 C 264.054688 210.691406 263.765625 210.601562 263.480469 210.484375 C 263.199219 210.367188 262.929688 210.222656 262.675781 210.050781 C 262.417969 209.882812 262.183594 209.6875 261.964844 209.472656 C 261.75 209.253906 261.554688 209.019531 261.386719 208.765625 C 261.214844 208.507812 261.070312 208.242188 260.953125 207.957031 C 260.835938 207.671875 260.75 207.382812 260.6875 207.082031 C 260.628906 206.78125 260.597656 206.476562 260.597656 206.171875 C 260.597656 205.863281 260.628906 205.558594 260.6875 205.257812 C 260.75 204.957031 260.835938 204.667969 260.953125 204.382812 C 261.070312 204.101562 261.214844 203.832031 261.386719 203.578125 C 261.554688 203.320312 261.75 203.085938 261.964844 202.867188 C 262.183594 202.652344 262.417969 202.457031 262.675781 202.289062 C 262.929688 202.117188 263.199219 201.972656 263.480469 201.855469 C 263.765625 201.738281 264.054688 201.652344 264.355469 201.589844 C 264.65625 201.53125 264.960938 201.5 265.269531 201.5 C 265.574219 201.5 265.878906 201.53125 266.179688 201.589844 C 266.480469 201.652344 266.769531 201.738281 267.054688 201.855469 C 267.335938 201.972656 267.605469 202.117188 267.863281 202.289062 C 268.117188 202.457031 268.351562 202.652344 268.570312 202.867188 C 268.785156 203.085938 268.980469 203.320312 269.148438 203.578125 C 269.320312 203.832031 269.464844 204.101562 269.582031 204.382812 C 269.699219 204.667969 269.789062 204.957031 269.847656 205.257812 C 269.90625 205.558594 269.9375 205.863281 269.9375 206.171875 Z M 269.9375 206.171875 " fill-opacity="1" fill-rule="nonzero"/><g clip-path="url(#b43c888c7a)"><path fill="#fcfdf2" d="M 69.171875 52.09375 C 68.25 52.09375 67.339844 52.183594 66.4375 52.363281 C 65.535156 52.542969 64.660156 52.808594 63.8125 53.160156 C 62.960938 53.511719 62.15625 53.945312 61.390625 54.457031 C 60.625 54.964844 59.917969 55.546875 59.265625 56.195312 C 58.617188 56.847656 58.035156 57.554688 57.523438 58.320312 C 57.015625 59.085938 56.582031 59.890625 56.230469 60.742188 C 55.878906 61.589844 55.613281 62.46875 55.433594 63.367188 C 55.253906 64.269531 55.164062 65.183594 55.164062 66.101562 C 55.164062 67.019531 55.253906 67.933594 55.433594 68.835938 C 55.613281 69.734375 55.878906 70.613281 56.230469 71.460938 C 56.582031 72.3125 57.015625 73.117188 57.523438 73.882812 C 58.035156 74.648438 58.617188 75.355469 59.265625 76.003906 C 59.917969 76.65625 60.625 77.238281 61.390625 77.746094 C 62.15625 78.257812 62.960938 78.691406 63.8125 79.042969 C 64.660156 79.394531 65.535156 79.660156 66.4375 79.839844 C 67.339844 80.019531 68.25 80.109375 69.171875 80.109375 C 70.089844 80.109375 71.003906 80.019531 71.902344 79.839844 C 72.804688 79.660156 73.683594 79.394531 74.53125 79.042969 C 75.382812 78.691406 76.1875 78.257812 76.953125 77.746094 C 77.71875 77.238281 78.425781 76.65625 79.074219 76.003906 C 79.726562 75.355469 80.308594 74.648438 80.816406 73.882812 C 81.328125 73.117188 81.761719 72.3125 82.113281 71.460938 C 82.464844 70.613281 82.730469 69.734375 82.910156 68.835938 C 83.089844 67.933594 83.179688 67.019531 83.179688 66.101562 C 83.179688 65.183594 83.089844 64.269531 82.910156 63.367188 C 82.730469 62.46875 82.464844 61.589844 82.113281 60.742188 C 81.761719 59.890625 81.328125 59.085938 80.816406 58.320312 C 80.308594 57.554688 79.726562 56.847656 79.074219 56.195312 C 78.425781 55.546875 77.71875 54.964844 76.953125 54.457031 C 76.1875 53.945312 75.382812 53.511719 74.53125 53.160156 C 73.683594 52.808594 72.804688 52.542969 71.902344 52.363281 C 71.003906 52.183594 70.089844 52.09375 69.171875 52.09375 Z M 69.171875 70.769531 C 68.863281 70.769531 68.5625 70.742188 68.261719 70.679688 C 67.960938 70.621094 67.667969 70.53125 67.382812 70.414062 C 67.101562 70.296875 66.832031 70.152344 66.578125 69.984375 C 66.324219 69.8125 66.085938 69.621094 65.871094 69.402344 C 65.652344 69.1875 65.460938 68.949219 65.289062 68.695312 C 65.117188 68.441406 64.976562 68.171875 64.859375 67.886719 C 64.742188 67.605469 64.652344 67.3125 64.59375 67.011719 C 64.53125 66.710938 64.503906 66.40625 64.503906 66.101562 C 64.503906 65.792969 64.53125 65.492188 64.59375 65.191406 C 64.652344 64.890625 64.742188 64.597656 64.859375 64.316406 C 64.976562 64.03125 65.117188 63.761719 65.289062 63.507812 C 65.460938 63.253906 65.652344 63.015625 65.871094 62.800781 C 66.085938 62.582031 66.324219 62.390625 66.578125 62.21875 C 66.832031 62.050781 67.101562 61.90625 67.386719 61.789062 C 67.667969 61.671875 67.960938 61.582031 68.261719 61.523438 C 68.5625 61.460938 68.863281 61.433594 69.171875 61.433594 C 69.476562 61.433594 69.78125 61.460938 70.082031 61.523438 C 70.382812 61.582031 70.675781 61.671875 70.957031 61.789062 C 71.242188 61.90625 71.511719 62.050781 71.765625 62.21875 C 72.019531 62.390625 72.257812 62.582031 72.472656 62.800781 C 72.691406 63.015625 72.882812 63.253906 73.054688 63.507812 C 73.222656 63.761719 73.367188 64.03125 73.484375 64.316406 C 73.601562 64.597656 73.691406 64.890625 73.75 65.191406 C 73.8125 65.492188 73.839844 65.792969 73.839844 66.101562 C 73.839844 66.40625 73.8125 66.710938 73.75 67.011719 C 73.691406 67.3125 73.601562 67.605469 73.484375 67.886719 C 73.367188 68.171875 73.222656 68.441406 73.054688 68.695312 C 72.882812 68.949219 72.691406 69.1875 72.472656 69.402344 C 72.257812 69.621094 72.019531 69.8125 71.765625 69.984375 C 71.511719 70.152344 71.242188 70.296875 70.957031 70.414062 C 70.675781 70.53125 70.382812 70.621094 70.082031 70.679688 C 69.78125 70.742188 69.476562 70.769531 69.171875 70.769531 Z M 69.171875 70.769531 " fill-opacity="1" fill-rule="nonzero"/></g><g clip-path="url(#23b3e9081d)"><path fill="#fcfdf2" d="M 78.507812 327.5625 L 297.949219 327.5625 C 298.398438 327.5625 298.835938 327.5 299.261719 327.375 C 299.691406 327.25 300.09375 327.066406 300.46875 326.828125 C 300.84375 326.585938 301.179688 326.296875 301.472656 325.960938 C 301.765625 325.625 302.003906 325.253906 302.191406 324.847656 C 302.378906 324.441406 302.503906 324.019531 302.570312 323.578125 C 302.636719 323.136719 302.636719 322.695312 302.574219 322.253906 C 302.515625 321.808594 302.390625 321.386719 302.207031 320.980469 C 302.027344 320.570312 301.789062 320.199219 301.5 319.859375 L 270.964844 284.28125 C 262.027344 273.894531 254.105469 262.78125 247.199219 250.945312 L 222.265625 208.457031 C 221.847656 207.75 221.277344 207.191406 220.5625 206.78125 C 219.847656 206.375 219.074219 206.171875 218.25 206.171875 L 162.878906 206.171875 C 162.054688 206.171875 161.28125 206.375 160.566406 206.78125 C 159.851562 207.191406 159.28125 207.75 158.863281 208.457031 L 136.871094 245.808594 C 127.996094 261.027344 117.507812 275.035156 105.402344 287.832031 L 75.101562 319.859375 C 74.816406 320.195312 74.582031 320.5625 74.398438 320.960938 C 74.214844 321.363281 74.09375 321.78125 74.027344 322.21875 C 73.964844 322.652344 73.960938 323.089844 74.019531 323.527344 C 74.082031 323.964844 74.199219 324.382812 74.378906 324.785156 C 74.554688 325.1875 74.785156 325.558594 75.070312 325.894531 C 75.351562 326.234375 75.675781 326.523438 76.042969 326.769531 C 76.40625 327.015625 76.800781 327.207031 77.21875 327.339844 C 77.640625 327.476562 78.070312 327.550781 78.507812 327.5625 Z M 165.585938 215.507812 L 215.542969 215.507812 L 227.917969 236.566406 C 225 234.996094 221.886719 234.203125 218.578125 234.183594 C 217.367188 234.199219 216.167969 234.34375 214.988281 234.617188 C 213.804688 234.890625 212.667969 235.289062 211.570312 235.808594 C 210.476562 236.328125 209.445312 236.960938 208.488281 237.699219 C 207.527344 238.441406 206.65625 239.277344 205.878906 240.207031 C 203.589844 242.496094 202.46875 243.523438 199.855469 243.523438 C 198.949219 243.539062 198.074219 243.367188 197.242188 243.007812 C 196.964844 242.878906 196.679688 242.773438 196.382812 242.699219 C 196.085938 242.625 195.785156 242.578125 195.480469 242.5625 C 195.175781 242.546875 194.871094 242.5625 194.570312 242.605469 C 194.265625 242.648438 193.972656 242.722656 193.683594 242.824219 C 193.394531 242.925781 193.121094 243.054688 192.855469 243.210938 C 192.59375 243.367188 192.347656 243.546875 192.121094 243.75 C 191.894531 243.953125 191.6875 244.179688 191.503906 244.421875 C 191.320312 244.667969 191.164062 244.925781 191.03125 245.203125 C 190.785156 245.867188 190.628906 246.550781 190.566406 247.257812 L 190.566406 276.203125 C 190.566406 276.511719 190.535156 276.816406 190.476562 277.117188 C 190.414062 277.417969 190.328125 277.707031 190.210938 277.992188 C 190.089844 278.273438 189.949219 278.542969 189.777344 278.796875 C 189.605469 279.054688 189.414062 279.289062 189.195312 279.507812 C 188.980469 279.722656 188.746094 279.917969 188.488281 280.085938 C 188.234375 280.257812 187.964844 280.402344 187.683594 280.519531 C 187.398438 280.636719 187.105469 280.722656 186.804688 280.785156 C 186.503906 280.84375 186.203125 280.875 185.894531 280.875 C 185.589844 280.875 185.285156 280.84375 184.984375 280.785156 C 184.683594 280.722656 184.390625 280.636719 184.109375 280.519531 C 183.824219 280.402344 183.554688 280.257812 183.300781 280.085938 C 183.046875 279.917969 182.8125 279.722656 182.59375 279.507812 C 182.378906 279.289062 182.183594 279.054688 182.011719 278.796875 C 181.84375 278.542969 181.699219 278.273438 181.582031 277.992188 C 181.464844 277.707031 181.375 277.417969 181.316406 277.117188 C 181.257812 276.816406 181.226562 276.511719 181.226562 276.203125 L 181.226562 239.832031 C 181.226562 239.445312 181.175781 239.0625 181.082031 238.683594 C 180.984375 238.304688 180.84375 237.945312 180.65625 237.605469 C 180.46875 237.261719 180.242188 236.949219 179.976562 236.664062 C 179.710938 236.378906 179.417969 236.132812 179.089844 235.921875 C 178.761719 235.710938 178.414062 235.542969 178.046875 235.417969 C 177.675781 235.292969 177.296875 235.21875 176.910156 235.1875 C 176.519531 235.160156 176.136719 235.175781 175.75 235.246094 C 175.367188 235.3125 175 235.425781 174.644531 235.585938 C 172.339844 236.773438 170.316406 238.332031 168.574219 240.253906 C 166.285156 242.496094 165.164062 243.523438 162.597656 243.523438 C 160.03125 243.523438 158.863281 242.496094 156.574219 240.207031 C 155.472656 239.085938 154.289062 238.058594 153.027344 237.125 Z M 165.585938 215.507812 " fill-opacity="1" fill-rule="nonzero"/></g><path fill="#fcfdf2" d="M 302.621094 84.777344 C 302.621094 85.695312 302.53125 86.609375 302.351562 87.511719 C 302.171875 88.410156 301.90625 89.289062 301.554688 90.136719 C 301.203125 90.988281 300.769531 91.792969 300.257812 92.558594 C 299.746094 93.324219 299.167969 94.03125 298.515625 94.683594 C 297.867188 95.332031 297.160156 95.914062 296.394531 96.421875 C 295.628906 96.933594 294.824219 97.367188 293.972656 97.71875 C 293.125 98.070312 292.246094 98.335938 291.34375 98.515625 C 290.441406 98.695312 289.53125 98.785156 288.613281 98.785156 C 287.691406 98.785156 286.78125 98.695312 285.878906 98.515625 C 284.976562 98.335938 284.101562 98.070312 283.253906 97.71875 C 282.402344 97.367188 281.59375 96.933594 280.832031 96.421875 C 280.066406 95.914062 279.359375 95.332031 278.707031 94.683594 C 278.058594 94.03125 277.476562 93.324219 276.964844 92.558594 C 276.457031 91.792969 276.023438 90.988281 275.671875 90.136719 C 275.320312 89.289062 275.054688 88.410156 274.875 87.511719 C 274.695312 86.609375 274.605469 85.695312 274.605469 84.777344 C 274.605469 83.859375 274.695312 82.945312 274.875 82.042969 C 275.054688 81.144531 275.320312 80.265625 275.671875 79.417969 C 276.023438 78.566406 276.457031 77.761719 276.964844 76.996094 C 277.476562 76.230469 278.058594 75.523438 278.707031 74.871094 C 279.359375 74.222656 280.066406 73.640625 280.832031 73.132812 C 281.59375 72.621094 282.402344 72.1875 283.253906 71.835938 C 284.101562 71.484375 284.976562 71.21875 285.878906 71.039062 C 286.78125 70.859375 287.691406 70.769531 288.613281 70.769531 C 289.53125 70.769531 290.441406 70.859375 291.34375 71.039062 C 292.246094 71.21875 293.125 71.484375 293.972656 71.835938 C 294.824219 72.1875 295.628906 72.621094 296.394531 73.132812 C 297.160156 73.640625 297.867188 74.222656 298.515625 74.871094 C 299.167969 75.523438 299.746094 76.230469 300.257812 76.996094 C 300.769531 77.761719 301.203125 78.566406 301.554688 79.417969 C 301.90625 80.265625 302.171875 81.144531 302.351562 82.042969 C 302.53125 82.945312 302.621094 83.859375 302.621094 84.777344 Z M 302.621094 84.777344 " fill-opacity="1" fill-rule="nonzero"/><path fill="#fcfdf2" d="M 111.191406 168.820312 C 111.191406 169.738281 111.101562 170.648438 110.921875 171.550781 C 110.742188 172.453125 110.476562 173.328125 110.125 174.179688 C 109.773438 175.027344 109.34375 175.835938 108.832031 176.601562 C 108.320312 177.363281 107.738281 178.074219 107.089844 178.722656 C 106.4375 179.375 105.730469 179.953125 104.96875 180.464844 C 104.203125 180.976562 103.394531 181.40625 102.546875 181.757812 C 101.695312 182.109375 100.820312 182.375 99.917969 182.554688 C 99.015625 182.734375 98.105469 182.824219 97.183594 182.824219 C 96.265625 182.824219 95.355469 182.734375 94.453125 182.554688 C 93.550781 182.375 92.675781 182.109375 91.824219 181.757812 C 90.976562 181.40625 90.167969 180.976562 89.402344 180.464844 C 88.640625 179.953125 87.929688 179.375 87.28125 178.722656 C 86.628906 178.074219 86.050781 177.363281 85.539062 176.601562 C 85.027344 175.835938 84.597656 175.027344 84.246094 174.179688 C 83.894531 173.328125 83.625 172.453125 83.449219 171.550781 C 83.269531 170.648438 83.179688 169.738281 83.179688 168.820312 C 83.179688 167.898438 83.269531 166.988281 83.449219 166.085938 C 83.625 165.183594 83.894531 164.308594 84.246094 163.457031 C 84.597656 162.609375 85.027344 161.800781 85.539062 161.035156 C 86.050781 160.273438 86.628906 159.566406 87.28125 158.914062 C 87.929688 158.265625 88.640625 157.683594 89.402344 157.171875 C 90.167969 156.660156 90.976562 156.230469 91.824219 155.878906 C 92.675781 155.527344 93.550781 155.261719 94.453125 155.082031 C 95.355469 154.902344 96.265625 154.8125 97.183594 154.8125 C 98.105469 154.8125 99.015625 154.902344 99.917969 155.082031 C 100.820312 155.261719 101.695312 155.527344 102.546875 155.878906 C 103.394531 156.230469 104.203125 156.660156 104.96875 157.171875 C 105.730469 157.683594 106.4375 158.265625 107.089844 158.914062 C 107.738281 159.566406 108.320312 160.273438 108.832031 161.035156 C 109.34375 161.800781 109.773438 162.609375 110.125 163.457031 C 110.476562 164.308594 110.742188 165.183594 110.921875 166.085938 C 111.101562 166.988281 111.191406 167.898438 111.191406 168.820312 Z M 111.191406 168.820312 " fill-opacity="1" fill-rule="nonzero"/><g clip-path="url(#7aac6c3bf7)"><path fill="#fcfdf2" d="M 115.859375 80.109375 C 115.859375 81.027344 115.949219 81.9375 116.128906 82.839844 C 116.308594 83.742188 116.574219 84.617188 116.925781 85.46875 C 117.277344 86.316406 117.710938 87.125 118.222656 87.890625 C 118.734375 88.65625 119.3125 89.363281 119.964844 90.011719 C 120.613281 90.664062 121.320312 91.242188 122.085938 91.753906 C 122.851562 92.265625 123.65625 92.695312 124.507812 93.050781 C 125.359375 93.402344 126.234375 93.667969 127.136719 93.847656 C 128.039062 94.027344 128.949219 94.113281 129.867188 94.113281 L 146.394531 94.113281 C 144.722656 97.003906 143.878906 100.113281 143.875 103.453125 C 143.882812 106.808594 144.753906 109.917969 146.488281 112.792969 C 145.570312 112.859375 144.664062 113.015625 143.777344 113.261719 C 142.890625 113.507812 142.03125 113.835938 141.210938 114.25 C 140.386719 114.667969 139.609375 115.15625 138.882812 115.722656 C 138.15625 116.289062 137.492188 116.921875 136.890625 117.621094 C 136.285156 118.320312 135.757812 119.070312 135.304688 119.871094 C 134.847656 120.671875 134.476562 121.511719 134.1875 122.386719 C 133.898438 123.261719 133.695312 124.15625 133.582031 125.074219 C 133.46875 125.988281 133.445312 126.90625 133.515625 127.824219 C 133.582031 128.746094 133.738281 129.648438 133.984375 130.535156 C 134.230469 131.425781 134.558594 132.28125 134.972656 133.105469 C 135.386719 133.929688 135.878906 134.703125 136.445312 135.433594 C 137.011719 136.160156 137.644531 136.824219 138.339844 137.425781 C 139.039062 138.03125 139.789062 138.558594 140.589844 139.011719 C 141.394531 139.46875 142.230469 139.839844 143.105469 140.128906 C 143.980469 140.421875 144.878906 140.621094 145.792969 140.734375 C 146.707031 140.847656 147.625 140.871094 148.542969 140.804688 L 158.675781 140.804688 C 158.140625 142.316406 157.875 143.871094 157.875 145.472656 C 157.875 147.074219 158.140625 148.632812 158.675781 150.144531 L 148.542969 150.144531 C 147.625 150.144531 146.714844 150.234375 145.8125 150.410156 C 144.910156 150.589844 144.035156 150.855469 143.183594 151.207031 C 142.332031 151.5625 141.527344 151.992188 140.761719 152.503906 C 139.996094 153.015625 139.289062 153.59375 138.640625 154.246094 C 137.988281 154.894531 137.410156 155.601562 136.898438 156.367188 C 136.386719 157.132812 135.957031 157.941406 135.601562 158.789062 C 135.25 159.640625 134.984375 160.515625 134.804688 161.417969 C 134.625 162.320312 134.535156 163.230469 134.535156 164.148438 C 134.535156 165.070312 134.625 165.980469 134.804688 166.882812 C 134.984375 167.785156 135.25 168.660156 135.601562 169.511719 C 135.957031 170.359375 136.386719 171.167969 136.898438 171.929688 C 137.410156 172.695312 137.988281 173.402344 138.640625 174.054688 C 139.289062 174.703125 139.996094 175.285156 140.761719 175.796875 C 141.527344 176.308594 142.332031 176.738281 143.183594 177.089844 C 144.035156 177.441406 144.910156 177.707031 145.8125 177.886719 C 146.714844 178.066406 147.625 178.15625 148.542969 178.15625 L 176.558594 178.15625 L 176.558594 187.496094 C 176.558594 188.414062 176.648438 189.324219 176.828125 190.226562 C 177.007812 191.128906 177.273438 192.003906 177.625 192.855469 C 177.976562 193.703125 178.40625 194.511719 178.917969 195.277344 C 179.429688 196.039062 180.011719 196.75 180.660156 197.398438 C 181.308594 198.050781 182.019531 198.628906 182.78125 199.140625 C 183.546875 199.652344 184.355469 200.082031 185.203125 200.433594 C 186.054688 200.785156 186.929688 201.054688 187.832031 201.230469 C 188.734375 201.410156 189.644531 201.5 190.566406 201.5 C 191.484375 201.5 192.394531 201.410156 193.296875 201.230469 C 194.199219 201.054688 195.074219 200.785156 195.925781 200.433594 C 196.773438 200.082031 197.582031 199.652344 198.347656 199.140625 C 199.109375 198.628906 199.820312 198.050781 200.46875 197.398438 C 201.121094 196.75 201.699219 196.039062 202.210938 195.277344 C 202.722656 194.511719 203.152344 193.703125 203.503906 192.855469 C 203.855469 192.003906 204.121094 191.128906 204.300781 190.226562 C 204.480469 189.324219 204.570312 188.414062 204.570312 187.496094 L 204.570312 178.15625 L 213.910156 178.15625 C 214.46875 178.15625 215.023438 178.125 215.578125 178.058594 C 216.132812 177.992188 216.679688 177.890625 217.222656 177.761719 C 217.765625 177.628906 218.300781 177.464844 218.824219 177.269531 C 219.34375 177.074219 219.855469 176.847656 220.351562 176.589844 C 220.847656 176.335938 221.324219 176.050781 221.789062 175.734375 C 222.25 175.421875 222.691406 175.082031 223.113281 174.714844 C 223.535156 174.347656 223.929688 173.957031 224.304688 173.542969 C 224.679688 173.128906 225.027344 172.695312 225.351562 172.238281 C 225.671875 171.785156 225.96875 171.308594 226.234375 170.820312 C 226.5 170.328125 226.734375 169.824219 226.941406 169.304688 C 227.144531 168.785156 227.320312 168.253906 227.460938 167.714844 C 227.605469 167.175781 227.714844 166.628906 227.789062 166.074219 C 227.867188 165.523438 227.910156 164.96875 227.921875 164.410156 C 227.929688 163.851562 227.910156 163.292969 227.851562 162.738281 C 227.796875 162.183594 227.707031 161.632812 227.585938 161.085938 C 227.460938 160.542969 227.308594 160.007812 227.121094 159.480469 L 283.945312 159.480469 C 284.863281 159.480469 285.773438 159.390625 286.675781 159.210938 C 287.578125 159.03125 288.453125 158.765625 289.304688 158.414062 C 290.152344 158.0625 290.960938 157.632812 291.726562 157.121094 C 292.488281 156.609375 293.199219 156.027344 293.847656 155.378906 C 294.5 154.726562 295.078125 154.019531 295.589844 153.253906 C 296.101562 152.492188 296.53125 151.683594 296.882812 150.835938 C 297.234375 149.984375 297.503906 149.109375 297.679688 148.207031 C 297.859375 147.304688 297.949219 146.394531 297.949219 145.472656 C 297.949219 144.554688 297.859375 143.644531 297.679688 142.742188 C 297.503906 141.839844 297.234375 140.964844 296.882812 140.113281 C 296.53125 139.265625 296.101562 138.457031 295.589844 137.691406 C 295.078125 136.925781 294.5 136.21875 293.847656 135.570312 C 293.199219 134.917969 292.488281 134.339844 291.726562 133.828125 C 290.960938 133.316406 290.152344 132.886719 289.304688 132.53125 C 288.453125 132.179688 287.578125 131.914062 286.675781 131.734375 C 285.773438 131.554688 284.863281 131.46875 283.945312 131.46875 L 273.8125 131.46875 C 274 130.941406 274.152344 130.40625 274.273438 129.859375 C 274.394531 129.316406 274.484375 128.765625 274.542969 128.210938 C 274.597656 127.652344 274.621094 127.097656 274.609375 126.539062 C 274.601562 125.980469 274.558594 125.425781 274.480469 124.871094 C 274.402344 124.320312 274.292969 123.773438 274.152344 123.230469 C 274.007812 122.691406 273.835938 122.164062 273.628906 121.644531 C 273.425781 121.125 273.1875 120.621094 272.921875 120.128906 C 272.65625 119.636719 272.363281 119.164062 272.039062 118.707031 C 271.71875 118.253906 271.371094 117.816406 270.996094 117.402344 C 270.621094 116.988281 270.222656 116.597656 269.800781 116.230469 C 269.378906 115.867188 268.9375 115.527344 268.476562 115.210938 C 268.015625 114.898438 267.535156 114.613281 267.039062 114.355469 C 266.542969 114.101562 266.035156 113.875 265.511719 113.679688 C 264.988281 113.484375 264.457031 113.320312 263.914062 113.1875 C 263.371094 113.054688 262.824219 112.957031 262.269531 112.890625 C 261.714844 112.824219 261.15625 112.789062 260.597656 112.792969 L 244.070312 112.792969 C 244.273438 112.4375 244.464844 112.078125 244.648438 111.714844 C 244.828125 111.347656 244.996094 110.976562 245.152344 110.601562 C 245.308594 110.226562 245.449219 109.84375 245.582031 109.457031 C 245.710938 109.070312 245.832031 108.683594 245.9375 108.289062 C 246.042969 107.894531 246.132812 107.5 246.214844 107.097656 C 246.292969 106.699219 246.359375 106.296875 246.414062 105.894531 C 246.464844 105.492188 246.507812 105.085938 246.53125 104.679688 C 246.558594 104.273438 246.574219 103.867188 246.574219 103.457031 C 246.574219 103.050781 246.558594 102.644531 246.535156 102.238281 C 246.507812 101.832031 246.46875 101.425781 246.414062 101.019531 C 246.359375 100.617188 246.292969 100.214844 246.214844 99.816406 C 246.136719 99.417969 246.042969 99.019531 245.9375 98.625 C 245.832031 98.234375 245.714844 97.84375 245.585938 97.457031 C 245.453125 97.070312 245.308594 96.691406 245.15625 96.3125 C 245 95.9375 244.832031 95.566406 244.652344 95.199219 C 244.472656 94.835938 244.277344 94.476562 244.074219 94.125 C 243.871094 93.769531 243.65625 93.425781 243.429688 93.085938 C 243.203125 92.746094 242.96875 92.414062 242.71875 92.09375 C 242.472656 91.769531 242.214844 91.453125 241.945312 91.148438 C 241.675781 90.839844 241.398438 90.542969 241.113281 90.253906 C 240.824219 89.96875 240.527344 89.6875 240.21875 89.421875 C 239.914062 89.152344 239.601562 88.894531 239.277344 88.644531 C 238.953125 88.394531 238.621094 88.160156 238.285156 87.933594 C 237.945312 87.707031 237.601562 87.492188 237.246094 87.285156 C 236.894531 87.082031 236.535156 86.890625 236.171875 86.710938 C 235.804688 86.53125 235.433594 86.359375 235.058594 86.203125 C 234.683594 86.046875 234.300781 85.90625 233.914062 85.773438 C 233.53125 85.640625 233.140625 85.523438 232.746094 85.417969 C 232.351562 85.3125 231.957031 85.21875 231.558594 85.140625 C 231.15625 85.058594 230.757812 84.992188 230.351562 84.9375 C 229.949219 84.886719 229.542969 84.84375 229.136719 84.820312 C 228.730469 84.792969 228.324219 84.777344 227.917969 84.777344 L 217.785156 84.777344 C 218.316406 83.265625 218.582031 81.710938 218.578125 80.109375 C 218.582031 78.316406 218.253906 76.589844 217.597656 74.925781 C 218.40625 74.699219 219.1875 74.40625 219.941406 74.039062 C 220.695312 73.675781 221.410156 73.246094 222.089844 72.753906 C 222.765625 72.257812 223.394531 71.707031 223.972656 71.101562 C 224.550781 70.496094 225.074219 69.84375 225.535156 69.144531 C 225.996094 68.441406 226.390625 67.707031 226.71875 66.9375 C 227.050781 66.164062 227.308594 65.371094 227.496094 64.554688 C 227.679688 63.738281 227.792969 62.910156 227.832031 62.074219 C 227.871094 61.234375 227.835938 60.402344 227.722656 59.570312 C 227.613281 58.738281 227.425781 57.925781 227.167969 57.128906 C 226.910156 56.328125 226.585938 55.5625 226.1875 54.820312 C 225.792969 54.082031 225.335938 53.386719 224.816406 52.726562 C 224.292969 52.070312 223.71875 51.464844 223.089844 50.914062 C 222.460938 50.359375 221.785156 49.867188 221.066406 49.433594 C 220.347656 49 219.597656 48.636719 218.816406 48.339844 C 218.03125 48.039062 217.226562 47.816406 216.402344 47.660156 C 215.578125 47.507812 214.746094 47.429688 213.910156 47.425781 L 176.558594 47.425781 C 176 47.425781 175.441406 47.457031 174.886719 47.523438 C 174.335938 47.589844 173.785156 47.691406 173.242188 47.820312 C 172.699219 47.953125 172.167969 48.117188 171.644531 48.3125 C 171.121094 48.507812 170.613281 48.734375 170.117188 48.992188 C 169.621094 49.246094 169.140625 49.53125 168.679688 49.847656 C 168.21875 50.160156 167.777344 50.5 167.355469 50.867188 C 166.933594 51.234375 166.535156 51.625 166.160156 52.039062 C 165.785156 52.453125 165.4375 52.886719 165.117188 53.34375 C 164.792969 53.796875 164.5 54.273438 164.234375 54.761719 C 163.96875 55.253906 163.730469 55.757812 163.527344 56.277344 C 163.320312 56.796875 163.148438 57.328125 163.003906 57.867188 C 162.863281 58.40625 162.753906 58.953125 162.675781 59.507812 C 162.601562 60.058594 162.554688 60.613281 162.546875 61.171875 C 162.535156 61.730469 162.558594 62.289062 162.613281 62.84375 C 162.671875 63.398438 162.761719 63.949219 162.882812 64.496094 C 163.003906 65.039062 163.160156 65.574219 163.34375 66.101562 L 129.867188 66.101562 C 128.949219 66.101562 128.039062 66.191406 127.136719 66.371094 C 126.234375 66.550781 125.359375 66.816406 124.507812 67.167969 C 123.65625 67.519531 122.851562 67.949219 122.085938 68.460938 C 121.320312 68.972656 120.613281 69.554688 119.964844 70.203125 C 119.3125 70.855469 118.734375 71.5625 118.222656 72.328125 C 117.710938 73.089844 117.277344 73.898438 116.925781 74.75 C 116.574219 75.597656 116.308594 76.472656 116.128906 77.375 C 115.949219 78.277344 115.859375 79.1875 115.859375 80.109375 Z M 176.558594 75.4375 C 176.863281 75.4375 177.167969 75.410156 177.46875 75.351562 C 177.769531 75.289062 178.0625 75.203125 178.34375 75.082031 C 178.628906 74.964844 178.898438 74.824219 179.152344 74.652344 C 179.40625 74.480469 179.640625 74.289062 179.859375 74.070312 C 180.074219 73.855469 180.269531 73.621094 180.441406 73.363281 C 180.609375 73.109375 180.753906 72.839844 180.871094 72.558594 C 180.988281 72.273438 181.078125 71.980469 181.136719 71.679688 C 181.195312 71.378906 181.226562 71.078125 181.226562 70.769531 C 181.226562 70.464844 181.195312 70.160156 181.136719 69.859375 C 181.078125 69.558594 180.988281 69.265625 180.871094 68.984375 C 180.753906 68.699219 180.609375 68.429688 180.441406 68.175781 C 180.269531 67.921875 180.074219 67.6875 179.859375 67.46875 C 179.640625 67.253906 179.40625 67.058594 179.152344 66.886719 C 178.898438 66.71875 178.628906 66.574219 178.34375 66.457031 C 178.0625 66.339844 177.769531 66.25 177.46875 66.191406 C 177.167969 66.132812 176.863281 66.101562 176.558594 66.101562 C 176.25 66.101562 175.949219 66.070312 175.648438 66.011719 C 175.347656 65.953125 175.054688 65.863281 174.769531 65.746094 C 174.488281 65.628906 174.21875 65.484375 173.964844 65.316406 C 173.707031 65.144531 173.472656 64.949219 173.257812 64.734375 C 173.039062 64.515625 172.847656 64.28125 172.675781 64.027344 C 172.503906 63.773438 172.363281 63.503906 172.242188 63.21875 C 172.125 62.9375 172.039062 62.644531 171.976562 62.34375 C 171.917969 62.042969 171.886719 61.738281 171.886719 61.433594 C 171.886719 61.125 171.917969 60.824219 171.976562 60.523438 C 172.039062 60.222656 172.125 59.929688 172.242188 59.644531 C 172.363281 59.363281 172.503906 59.09375 172.675781 58.839844 C 172.847656 58.582031 173.039062 58.347656 173.257812 58.132812 C 173.472656 57.914062 173.707031 57.722656 173.964844 57.550781 C 174.21875 57.378906 174.488281 57.234375 174.769531 57.117188 C 175.054688 57 175.347656 56.914062 175.648438 56.851562 C 175.949219 56.792969 176.25 56.761719 176.558594 56.761719 L 213.910156 56.761719 C 214.214844 56.761719 214.519531 56.792969 214.820312 56.851562 C 215.121094 56.914062 215.414062 57 215.695312 57.117188 C 215.980469 57.234375 216.25 57.378906 216.503906 57.550781 C 216.757812 57.722656 216.992188 57.914062 217.210938 58.132812 C 217.425781 58.347656 217.621094 58.582031 217.792969 58.839844 C 217.960938 59.09375 218.105469 59.363281 218.222656 59.644531 C 218.339844 59.929688 218.429688 60.222656 218.488281 60.523438 C 218.546875 60.824219 218.578125 61.125 218.578125 61.433594 C 218.578125 61.738281 218.546875 62.042969 218.488281 62.34375 C 218.429688 62.644531 218.339844 62.9375 218.222656 63.21875 C 218.105469 63.503906 217.960938 63.773438 217.792969 64.027344 C 217.621094 64.28125 217.425781 64.515625 217.210938 64.734375 C 216.992188 64.949219 216.757812 65.144531 216.503906 65.316406 C 216.25 65.484375 215.980469 65.628906 215.695312 65.746094 C 215.414062 65.863281 215.121094 65.953125 214.820312 66.011719 C 214.519531 66.070312 214.214844 66.101562 213.910156 66.101562 L 204.570312 66.101562 C 204.265625 66.101562 203.960938 66.132812 203.660156 66.191406 C 203.359375 66.25 203.066406 66.339844 202.785156 66.457031 C 202.5 66.574219 202.230469 66.71875 201.976562 66.886719 C 201.722656 67.058594 201.488281 67.253906 201.269531 67.46875 C 201.054688 67.6875 200.859375 67.921875 200.6875 68.175781 C 200.519531 68.429688 200.375 68.699219 200.257812 68.984375 C 200.140625 69.265625 200.050781 69.558594 199.992188 69.859375 C 199.933594 70.160156 199.902344 70.464844 199.902344 70.769531 C 199.902344 71.078125 199.933594 71.378906 199.992188 71.679688 C 200.050781 71.980469 200.140625 72.273438 200.257812 72.558594 C 200.375 72.839844 200.519531 73.109375 200.6875 73.363281 C 200.859375 73.621094 201.054688 73.855469 201.269531 74.070312 C 201.488281 74.289062 201.722656 74.480469 201.976562 74.652344 C 202.230469 74.824219 202.5 74.964844 202.785156 75.082031 C 203.066406 75.203125 203.359375 75.289062 203.660156 75.351562 C 203.960938 75.410156 204.265625 75.4375 204.570312 75.4375 C 204.878906 75.4375 205.179688 75.46875 205.480469 75.527344 C 205.78125 75.589844 206.074219 75.675781 206.359375 75.792969 C 206.640625 75.910156 206.910156 76.054688 207.164062 76.226562 C 207.421875 76.398438 207.65625 76.589844 207.871094 76.808594 C 208.089844 77.023438 208.28125 77.257812 208.453125 77.515625 C 208.625 77.769531 208.769531 78.039062 208.886719 78.320312 C 209.003906 78.605469 209.089844 78.898438 209.152344 79.199219 C 209.210938 79.5 209.242188 79.800781 209.242188 80.109375 C 209.242188 80.414062 209.210938 80.71875 209.152344 81.019531 C 209.089844 81.320312 209.003906 81.613281 208.886719 81.894531 C 208.769531 82.179688 208.625 82.449219 208.453125 82.703125 C 208.28125 82.957031 208.089844 83.191406 207.871094 83.410156 C 207.65625 83.625 207.421875 83.820312 207.164062 83.992188 C 206.910156 84.160156 206.640625 84.304688 206.359375 84.421875 C 206.074219 84.539062 205.78125 84.628906 205.480469 84.6875 C 205.179688 84.746094 204.878906 84.777344 204.570312 84.777344 C 204.265625 84.777344 203.960938 84.808594 203.660156 84.867188 C 203.359375 84.925781 203.066406 85.015625 202.785156 85.132812 C 202.5 85.25 202.230469 85.394531 201.976562 85.5625 C 201.722656 85.734375 201.488281 85.929688 201.269531 86.144531 C 201.054688 86.363281 200.859375 86.597656 200.6875 86.851562 C 200.519531 87.105469 200.375 87.375 200.257812 87.660156 C 200.140625 87.941406 200.050781 88.234375 199.992188 88.535156 C 199.933594 88.835938 199.902344 89.140625 199.902344 89.445312 C 199.902344 89.753906 199.933594 90.054688 199.992188 90.355469 C 200.050781 90.65625 200.140625 90.949219 200.257812 91.234375 C 200.375 91.515625 200.519531 91.785156 200.6875 92.039062 C 200.859375 92.296875 201.054688 92.53125 201.269531 92.746094 C 201.488281 92.964844 201.722656 93.15625 201.976562 93.328125 C 202.230469 93.5 202.5 93.640625 202.785156 93.761719 C 203.066406 93.878906 203.359375 93.964844 203.660156 94.027344 C 203.960938 94.085938 204.265625 94.113281 204.570312 94.113281 L 227.917969 94.113281 C 228.53125 94.113281 229.136719 94.175781 229.738281 94.292969 C 230.339844 94.414062 230.921875 94.589844 231.488281 94.824219 C 232.054688 95.0625 232.59375 95.347656 233.105469 95.6875 C 233.613281 96.03125 234.085938 96.417969 234.519531 96.851562 C 234.953125 97.285156 235.339844 97.753906 235.679688 98.265625 C 236.019531 98.773438 236.308594 99.3125 236.542969 99.878906 C 236.777344 100.445312 236.953125 101.03125 237.074219 101.632812 C 237.195312 102.234375 237.253906 102.839844 237.253906 103.453125 L 153.210938 103.453125 C 153.210938 102.839844 153.273438 102.234375 153.390625 101.632812 C 153.511719 101.03125 153.6875 100.445312 153.921875 99.878906 C 154.160156 99.3125 154.445312 98.773438 154.785156 98.265625 C 155.128906 97.753906 155.515625 97.285156 155.949219 96.851562 C 156.382812 96.417969 156.851562 96.03125 157.363281 95.6875 C 157.871094 95.347656 158.410156 95.0625 158.976562 94.824219 C 159.542969 94.589844 160.128906 94.414062 160.730469 94.292969 C 161.332031 94.175781 161.9375 94.113281 162.550781 94.113281 C 162.855469 94.113281 163.160156 94.085938 163.460938 94.027344 C 163.761719 93.964844 164.054688 93.878906 164.335938 93.761719 C 164.621094 93.640625 164.890625 93.5 165.144531 93.328125 C 165.398438 93.15625 165.636719 92.964844 165.851562 92.746094 C 166.070312 92.53125 166.261719 92.296875 166.433594 92.039062 C 166.601562 91.785156 166.746094 91.515625 166.863281 91.234375 C 166.980469 90.949219 167.070312 90.65625 167.128906 90.355469 C 167.191406 90.054688 167.21875 89.753906 167.21875 89.445312 C 167.21875 89.140625 167.191406 88.835938 167.128906 88.535156 C 167.070312 88.234375 166.980469 87.941406 166.863281 87.660156 C 166.746094 87.375 166.601562 87.105469 166.433594 86.851562 C 166.261719 86.597656 166.070312 86.363281 165.851562 86.144531 C 165.636719 85.929688 165.398438 85.734375 165.144531 85.5625 C 164.890625 85.394531 164.621094 85.25 164.335938 85.132812 C 164.054688 85.015625 163.761719 84.925781 163.460938 84.867188 C 163.160156 84.808594 162.855469 84.777344 162.550781 84.777344 L 129.867188 84.777344 C 129.5625 84.777344 129.257812 84.746094 128.957031 84.6875 C 128.65625 84.628906 128.363281 84.539062 128.082031 84.421875 C 127.796875 84.304688 127.527344 84.160156 127.273438 83.992188 C 127.019531 83.820312 126.785156 83.625 126.566406 83.410156 C 126.351562 83.191406 126.15625 82.957031 125.984375 82.703125 C 125.816406 82.449219 125.671875 82.179688 125.554688 81.894531 C 125.4375 81.613281 125.347656 81.320312 125.289062 81.019531 C 125.230469 80.71875 125.199219 80.414062 125.199219 80.109375 C 125.199219 79.800781 125.230469 79.5 125.289062 79.199219 C 125.347656 78.898438 125.4375 78.605469 125.554688 78.320312 C 125.671875 78.039062 125.816406 77.769531 125.984375 77.515625 C 126.15625 77.257812 126.351562 77.023438 126.566406 76.808594 C 126.785156 76.589844 127.019531 76.398438 127.273438 76.226562 C 127.527344 76.054688 127.796875 75.910156 128.082031 75.792969 C 128.363281 75.675781 128.65625 75.589844 128.957031 75.527344 C 129.257812 75.46875 129.5625 75.4375 129.867188 75.4375 Z M 176.558594 75.4375 " fill-opacity="1" fill-rule="nonzero"/></g></svg>